<mxfile host="app.diagrams.net" modified="2023-07-03T21:37:38.972Z" agent="Mozilla/5.0 (X11; Ubuntu; Linux x86_64; rv:109.0) Gecko/20100101 Firefox/114.0" etag="S257i3nWYw2kxqMecqpa" version="21.5.2" type="device">
  <diagram name="Page-1" id="86kGKsYgO495ie1x49M2">
    <mxGraphModel dx="3927" dy="2567" grid="1" gridSize="10" guides="1" tooltips="1" connect="1" arrows="1" fold="1" page="1" pageScale="1" pageWidth="850" pageHeight="1100" math="0" shadow="0">
      <root>
        <mxCell id="0" />
        <mxCell id="1" parent="0" />
        <mxCell id="Xu3pypZPAqOBUNZXEyIU-3" value="" style="shape=folder;fontStyle=1;spacingTop=10;tabWidth=59;tabHeight=30;tabPosition=left;html=1;whiteSpace=wrap;" vertex="1" parent="1">
          <mxGeometry x="-290" y="-270" width="230" height="250" as="geometry" />
        </mxCell>
        <mxCell id="tgPBSSRWqkqk4DsDawLG-85" value="" style="shape=folder;fontStyle=1;spacingTop=10;tabWidth=59;tabHeight=30;tabPosition=left;html=1;whiteSpace=wrap;" parent="1" vertex="1">
          <mxGeometry x="50" y="-391" width="1320" height="651" as="geometry" />
        </mxCell>
        <mxCell id="tgPBSSRWqkqk4DsDawLG-37" value="" style="shape=folder;fontStyle=1;spacingTop=10;tabWidth=40;tabHeight=30;tabPosition=left;html=1;whiteSpace=wrap;" parent="1" vertex="1">
          <mxGeometry x="57.5" y="-870" width="1262.5" height="460" as="geometry" />
        </mxCell>
        <mxCell id="tgPBSSRWqkqk4DsDawLG-45" style="edgeStyle=orthogonalEdgeStyle;rounded=0;orthogonalLoop=1;jettySize=auto;html=1;" parent="1" source="tgPBSSRWqkqk4DsDawLG-4" target="tgPBSSRWqkqk4DsDawLG-14" edge="1">
          <mxGeometry relative="1" as="geometry">
            <Array as="points">
              <mxPoint x="150" y="-610" />
              <mxPoint x="150" y="-610" />
            </Array>
          </mxGeometry>
        </mxCell>
        <mxCell id="tgPBSSRWqkqk4DsDawLG-46" value="Kitchen" style="edgeLabel;html=1;align=center;verticalAlign=middle;resizable=0;points=[];" parent="tgPBSSRWqkqk4DsDawLG-45" vertex="1" connectable="0">
          <mxGeometry x="-0.6599" y="1" relative="1" as="geometry">
            <mxPoint as="offset" />
          </mxGeometry>
        </mxCell>
        <mxCell id="tgPBSSRWqkqk4DsDawLG-47" value="0..1" style="edgeLabel;html=1;align=center;verticalAlign=middle;resizable=0;points=[];" parent="tgPBSSRWqkqk4DsDawLG-45" vertex="1" connectable="0">
          <mxGeometry x="0.6761" relative="1" as="geometry">
            <mxPoint x="10" as="offset" />
          </mxGeometry>
        </mxCell>
        <mxCell id="tgPBSSRWqkqk4DsDawLG-4" value="Participant" style="swimlane;fontStyle=1;align=center;verticalAlign=top;childLayout=stackLayout;horizontal=1;startSize=26;horizontalStack=0;resizeParent=1;resizeLast=0;collapsible=1;marginBottom=0;rounded=0;shadow=0;strokeWidth=1;" parent="1" vertex="1">
          <mxGeometry x="70" y="-590" width="160" height="140" as="geometry">
            <mxRectangle x="550" y="140" width="160" height="26" as="alternateBounds" />
          </mxGeometry>
        </mxCell>
        <mxCell id="tgPBSSRWqkqk4DsDawLG-5" value="- ID : int&#xa;- name : String&#xa;- foodPreference : int&#xa;- age : int&#xa;- sex : Sex&#xa;- agerange : AgeRange&#xa;- Kitchen_Count : int" style="text;align=left;verticalAlign=top;spacingLeft=4;spacingRight=4;overflow=hidden;rotatable=0;points=[[0,0.5],[1,0.5]];portConstraint=eastwest;" parent="tgPBSSRWqkqk4DsDawLG-4" vertex="1">
          <mxGeometry y="26" width="160" height="114" as="geometry" />
        </mxCell>
        <mxCell id="tgPBSSRWqkqk4DsDawLG-39" style="edgeStyle=orthogonalEdgeStyle;rounded=0;orthogonalLoop=1;jettySize=auto;html=1;" parent="1" target="tgPBSSRWqkqk4DsDawLG-4" edge="1">
          <mxGeometry relative="1" as="geometry">
            <mxPoint x="340" y="-560" as="sourcePoint" />
            <Array as="points">
              <mxPoint x="340" y="-540" />
            </Array>
          </mxGeometry>
        </mxCell>
        <mxCell id="tgPBSSRWqkqk4DsDawLG-40" value="participant1" style="edgeLabel;html=1;align=center;verticalAlign=middle;resizable=0;points=[];" parent="tgPBSSRWqkqk4DsDawLG-39" vertex="1" connectable="0">
          <mxGeometry x="-0.0784" y="1" relative="1" as="geometry">
            <mxPoint as="offset" />
          </mxGeometry>
        </mxCell>
        <mxCell id="Xu3pypZPAqOBUNZXEyIU-55" style="edgeStyle=orthogonalEdgeStyle;rounded=0;orthogonalLoop=1;jettySize=auto;html=1;" edge="1" parent="1" source="tgPBSSRWqkqk4DsDawLG-6" target="tgPBSSRWqkqk4DsDawLG-14">
          <mxGeometry relative="1" as="geometry">
            <Array as="points">
              <mxPoint x="40" y="-490" />
              <mxPoint x="40" y="-711" />
            </Array>
          </mxGeometry>
        </mxCell>
        <mxCell id="Xu3pypZPAqOBUNZXEyIU-56" value="PairKitchen" style="edgeLabel;html=1;align=center;verticalAlign=middle;resizable=0;points=[];" vertex="1" connectable="0" parent="Xu3pypZPAqOBUNZXEyIU-55">
          <mxGeometry x="0.7169" y="-5" relative="1" as="geometry">
            <mxPoint as="offset" />
          </mxGeometry>
        </mxCell>
        <mxCell id="tgPBSSRWqkqk4DsDawLG-6" value="Pair" style="swimlane;fontStyle=1;align=center;verticalAlign=top;childLayout=stackLayout;horizontal=1;startSize=26;horizontalStack=0;resizeParent=1;resizeParentMax=0;resizeLast=0;collapsible=1;marginBottom=0;whiteSpace=wrap;html=1;" parent="1" vertex="1">
          <mxGeometry x="340" y="-575" width="250" height="140" as="geometry" />
        </mxCell>
        <mxCell id="tgPBSSRWqkqk4DsDawLG-7" value="- Pair_ID : int&lt;br&gt;&lt;div&gt;- isPremade : boolean&lt;/div&gt;&lt;div&gt;- foodPreference : FOOD_PREFERENCE&lt;/div&gt;&lt;div&gt;&lt;br&gt;&lt;/div&gt;" style="text;strokeColor=none;fillColor=none;align=left;verticalAlign=top;spacingLeft=4;spacingRight=4;overflow=hidden;rotatable=0;points=[[0,0.5],[1,0.5]];portConstraint=eastwest;whiteSpace=wrap;html=1;" parent="tgPBSSRWqkqk4DsDawLG-6" vertex="1">
          <mxGeometry y="26" width="250" height="54" as="geometry" />
        </mxCell>
        <mxCell id="tgPBSSRWqkqk4DsDawLG-8" value="" style="line;strokeWidth=1;fillColor=none;align=left;verticalAlign=middle;spacingTop=-1;spacingLeft=3;spacingRight=3;rotatable=0;labelPosition=right;points=[];portConstraint=eastwest;strokeColor=inherit;" parent="tgPBSSRWqkqk4DsDawLG-6" vertex="1">
          <mxGeometry y="80" width="250" height="8" as="geometry" />
        </mxCell>
        <mxCell id="tgPBSSRWqkqk4DsDawLG-9" value="- meetPair(Pair) : void&amp;nbsp;&lt;br&gt;- findFoodPreference() : FOOD_PREFERENCE" style="text;strokeColor=none;fillColor=none;align=left;verticalAlign=top;spacingLeft=4;spacingRight=4;overflow=hidden;rotatable=0;points=[[0,0.5],[1,0.5]];portConstraint=eastwest;whiteSpace=wrap;html=1;" parent="tgPBSSRWqkqk4DsDawLG-6" vertex="1">
          <mxGeometry y="88" width="250" height="52" as="geometry" />
        </mxCell>
        <mxCell id="tgPBSSRWqkqk4DsDawLG-51" style="edgeStyle=orthogonalEdgeStyle;rounded=0;orthogonalLoop=1;jettySize=auto;html=1;" parent="1" source="tgPBSSRWqkqk4DsDawLG-10" target="tgPBSSRWqkqk4DsDawLG-6" edge="1">
          <mxGeometry relative="1" as="geometry">
            <Array as="points">
              <mxPoint x="630" y="-480" />
              <mxPoint x="630" y="-480" />
            </Array>
          </mxGeometry>
        </mxCell>
        <mxCell id="tgPBSSRWqkqk4DsDawLG-52" value="CookingPair" style="edgeLabel;html=1;align=center;verticalAlign=middle;resizable=0;points=[];" parent="tgPBSSRWqkqk4DsDawLG-51" vertex="1" connectable="0">
          <mxGeometry x="-0.2697" relative="1" as="geometry">
            <mxPoint x="-6" as="offset" />
          </mxGeometry>
        </mxCell>
        <mxCell id="Xu3pypZPAqOBUNZXEyIU-53" style="edgeStyle=orthogonalEdgeStyle;rounded=0;orthogonalLoop=1;jettySize=auto;html=1;entryX=0.75;entryY=0;entryDx=0;entryDy=0;" edge="1" parent="1" source="tgPBSSRWqkqk4DsDawLG-10" target="tgPBSSRWqkqk4DsDawLG-14">
          <mxGeometry relative="1" as="geometry">
            <Array as="points">
              <mxPoint x="750" y="-776" />
              <mxPoint x="190" y="-776" />
            </Array>
          </mxGeometry>
        </mxCell>
        <mxCell id="Xu3pypZPAqOBUNZXEyIU-54" value="&lt;div&gt;GroupKitchen&lt;/div&gt;" style="edgeLabel;html=1;align=center;verticalAlign=middle;resizable=0;points=[];" vertex="1" connectable="0" parent="Xu3pypZPAqOBUNZXEyIU-53">
          <mxGeometry x="-0.5698" y="-2" relative="1" as="geometry">
            <mxPoint as="offset" />
          </mxGeometry>
        </mxCell>
        <mxCell id="tgPBSSRWqkqk4DsDawLG-10" value="Group" style="swimlane;fontStyle=1;align=center;verticalAlign=top;childLayout=stackLayout;horizontal=1;startSize=26;horizontalStack=0;resizeParent=1;resizeParentMax=0;resizeLast=0;collapsible=1;marginBottom=0;whiteSpace=wrap;html=1;" parent="1" vertex="1">
          <mxGeometry x="670" y="-575" width="240" height="110" as="geometry" />
        </mxCell>
        <mxCell id="tgPBSSRWqkqk4DsDawLG-11" value="&lt;div&gt;- course : COURSE&lt;/div&gt;&lt;div&gt;- foodPreference : FOOD_PREFERENCE&lt;br&gt;&lt;/div&gt;&lt;div&gt;&lt;br&gt;&lt;/div&gt;" style="text;strokeColor=none;fillColor=none;align=left;verticalAlign=top;spacingLeft=4;spacingRight=4;overflow=hidden;rotatable=0;points=[[0,0.5],[1,0.5]];portConstraint=eastwest;whiteSpace=wrap;html=1;" parent="tgPBSSRWqkqk4DsDawLG-10" vertex="1">
          <mxGeometry y="26" width="240" height="34" as="geometry" />
        </mxCell>
        <mxCell id="tgPBSSRWqkqk4DsDawLG-12" value="" style="line;strokeWidth=1;fillColor=none;align=left;verticalAlign=middle;spacingTop=-1;spacingLeft=3;spacingRight=3;rotatable=0;labelPosition=right;points=[];portConstraint=eastwest;strokeColor=inherit;" parent="tgPBSSRWqkqk4DsDawLG-10" vertex="1">
          <mxGeometry y="60" width="240" height="8" as="geometry" />
        </mxCell>
        <mxCell id="tgPBSSRWqkqk4DsDawLG-13" value="- removePairFromGroup(Pair) : void&lt;br&gt;&lt;div&gt;- checkVisited(Pair,Pair) : boolean&lt;/div&gt;" style="text;strokeColor=none;fillColor=none;align=left;verticalAlign=top;spacingLeft=4;spacingRight=4;overflow=hidden;rotatable=0;points=[[0,0.5],[1,0.5]];portConstraint=eastwest;whiteSpace=wrap;html=1;" parent="tgPBSSRWqkqk4DsDawLG-10" vertex="1">
          <mxGeometry y="68" width="240" height="42" as="geometry" />
        </mxCell>
        <mxCell id="tgPBSSRWqkqk4DsDawLG-14" value="Kitchen" style="swimlane;fontStyle=1;align=center;verticalAlign=top;childLayout=stackLayout;horizontal=1;startSize=26;horizontalStack=0;resizeParent=1;resizeLast=0;collapsible=1;marginBottom=0;rounded=0;shadow=0;strokeWidth=1;" parent="1" vertex="1">
          <mxGeometry x="70" y="-756" width="160" height="90" as="geometry">
            <mxRectangle x="550" y="140" width="160" height="26" as="alternateBounds" />
          </mxGeometry>
        </mxCell>
        <mxCell id="tgPBSSRWqkqk4DsDawLG-15" value="- kitchen_Story : int&#xa;- kitchen_Longitude : double&#xa;- kitchen_Latitude : double&#xa;- isEmergency : boolean&#xa;" style="text;align=left;verticalAlign=top;spacingLeft=4;spacingRight=4;overflow=hidden;rotatable=0;points=[[0,0.5],[1,0.5]];portConstraint=eastwest;" parent="tgPBSSRWqkqk4DsDawLG-14" vertex="1">
          <mxGeometry y="26" width="160" height="64" as="geometry" />
        </mxCell>
        <mxCell id="tgPBSSRWqkqk4DsDawLG-23" value="CanceledList" style="swimlane;fontStyle=1;align=center;verticalAlign=top;childLayout=stackLayout;horizontal=1;startSize=26;horizontalStack=0;resizeParent=1;resizeParentMax=0;resizeLast=0;collapsible=1;marginBottom=0;whiteSpace=wrap;html=1;" parent="1" vertex="1">
          <mxGeometry x="270" y="-659.9999999999999" width="195" height="34" as="geometry" />
        </mxCell>
        <mxCell id="tgPBSSRWqkqk4DsDawLG-24" value="" style="line;strokeWidth=1;fillColor=none;align=left;verticalAlign=middle;spacingTop=-1;spacingLeft=3;spacingRight=3;rotatable=0;labelPosition=right;points=[];portConstraint=eastwest;strokeColor=inherit;" parent="tgPBSSRWqkqk4DsDawLG-23" vertex="1">
          <mxGeometry y="26" width="195" height="8" as="geometry" />
        </mxCell>
        <mxCell id="tgPBSSRWqkqk4DsDawLG-81" style="edgeStyle=orthogonalEdgeStyle;rounded=0;orthogonalLoop=1;jettySize=auto;html=1;" parent="1" source="tgPBSSRWqkqk4DsDawLG-87" target="tgPBSSRWqkqk4DsDawLG-20" edge="1">
          <mxGeometry relative="1" as="geometry">
            <Array as="points">
              <mxPoint x="460" y="-320" />
              <mxPoint x="640" y="-320" />
              <mxPoint x="640" y="-600" />
              <mxPoint x="748" y="-600" />
            </Array>
          </mxGeometry>
        </mxCell>
        <mxCell id="tgPBSSRWqkqk4DsDawLG-83" value="ParticipantSuccesorList" style="edgeLabel;html=1;align=center;verticalAlign=middle;resizable=0;points=[];" parent="tgPBSSRWqkqk4DsDawLG-81" vertex="1" connectable="0">
          <mxGeometry x="-0.0132" y="3" relative="1" as="geometry">
            <mxPoint x="-167" y="93" as="offset" />
          </mxGeometry>
        </mxCell>
        <mxCell id="tgPBSSRWqkqk4DsDawLG-98" style="edgeStyle=orthogonalEdgeStyle;rounded=0;orthogonalLoop=1;jettySize=auto;html=1;endArrow=none;endFill=0;" parent="1" source="tgPBSSRWqkqk4DsDawLG-29" target="tgPBSSRWqkqk4DsDawLG-87" edge="1">
          <mxGeometry relative="1" as="geometry">
            <mxPoint x="920" y="-450" as="sourcePoint" />
            <Array as="points">
              <mxPoint x="1040" y="-430" />
              <mxPoint x="920" y="-430" />
              <mxPoint x="920" y="-260" />
              <mxPoint x="450" y="-260" />
            </Array>
          </mxGeometry>
        </mxCell>
        <mxCell id="tgPBSSRWqkqk4DsDawLG-103" value="DataList" style="edgeLabel;html=1;align=center;verticalAlign=middle;resizable=0;points=[];" parent="tgPBSSRWqkqk4DsDawLG-98" vertex="1" connectable="0">
          <mxGeometry x="-0.7239" y="4" relative="1" as="geometry">
            <mxPoint x="-287" y="166" as="offset" />
          </mxGeometry>
        </mxCell>
        <mxCell id="tgPBSSRWqkqk4DsDawLG-131" value="Event" style="edgeLabel;html=1;align=center;verticalAlign=middle;resizable=0;points=[];" parent="tgPBSSRWqkqk4DsDawLG-98" vertex="1" connectable="0">
          <mxGeometry x="-0.9596" y="-3" relative="1" as="geometry">
            <mxPoint y="7" as="offset" />
          </mxGeometry>
        </mxCell>
        <mxCell id="tgPBSSRWqkqk4DsDawLG-29" value="Event" style="swimlane;fontStyle=1;align=center;verticalAlign=top;childLayout=stackLayout;horizontal=1;startSize=26;horizontalStack=0;resizeParent=1;resizeParentMax=0;resizeLast=0;collapsible=1;marginBottom=0;whiteSpace=wrap;html=1;" parent="1" vertex="1">
          <mxGeometry x="950" y="-575" width="191" height="118" as="geometry" />
        </mxCell>
        <mxCell id="tgPBSSRWqkqk4DsDawLG-30" value="- Event_ID : int&lt;br&gt;- Date : Date&lt;br&gt;- partyVenue : String &lt;br&gt;&lt;div&gt;- IsFull : boolean &lt;br&gt;&lt;/div&gt;&lt;div&gt;- maxParticipant : int&lt;br&gt;&lt;/div&gt;" style="text;strokeColor=none;fillColor=none;align=left;verticalAlign=top;spacingLeft=4;spacingRight=4;overflow=hidden;rotatable=0;points=[[0,0.5],[1,0.5]];portConstraint=eastwest;whiteSpace=wrap;html=1;" parent="tgPBSSRWqkqk4DsDawLG-29" vertex="1">
          <mxGeometry y="26" width="191" height="84" as="geometry" />
        </mxCell>
        <mxCell id="tgPBSSRWqkqk4DsDawLG-31" value="" style="line;strokeWidth=1;fillColor=none;align=left;verticalAlign=middle;spacingTop=-1;spacingLeft=3;spacingRight=3;rotatable=0;labelPosition=right;points=[];portConstraint=eastwest;strokeColor=inherit;" parent="tgPBSSRWqkqk4DsDawLG-29" vertex="1">
          <mxGeometry y="110" width="191" height="8" as="geometry" />
        </mxCell>
        <mxCell id="tgPBSSRWqkqk4DsDawLG-32" value="&lt;p style=&quot;margin:0px;margin-top:4px;text-align:center;&quot;&gt;&lt;i&gt;&amp;lt;&amp;lt;enumeration&amp;gt;&amp;gt;&lt;/i&gt;&lt;br&gt;&lt;/p&gt;&lt;p style=&quot;margin:0px;margin-top:4px;text-align:center;&quot;&gt;SEX&lt;br&gt;&lt;/p&gt;&lt;hr size=&quot;1&quot;&gt;&lt;p style=&quot;margin:0px;margin-left:4px;&quot;&gt;- female&lt;/p&gt;&lt;p style=&quot;margin:0px;margin-left:4px;&quot;&gt;- male&lt;/p&gt;&lt;p style=&quot;margin:0px;margin-left:4px;&quot;&gt;- other&lt;/p&gt;" style="verticalAlign=top;align=left;overflow=fill;fontSize=12;fontFamily=Helvetica;html=1;whiteSpace=wrap;" parent="1" vertex="1">
          <mxGeometry x="270" y="-800" width="100" height="100" as="geometry" />
        </mxCell>
        <mxCell id="tgPBSSRWqkqk4DsDawLG-33" value="&lt;p style=&quot;margin:0px;margin-top:4px;text-align:center;&quot;&gt;&lt;i&gt;&amp;lt;&amp;lt;enumeration&amp;gt;&amp;gt;&lt;/i&gt;&lt;br&gt;&lt;/p&gt;&lt;p style=&quot;margin:0px;margin-top:4px;text-align:center;&quot;&gt;AGE_RANGE&lt;/p&gt;&lt;hr size=&quot;1&quot;&gt;&lt;p style=&quot;margin:0px;margin-left:4px;&quot;&gt;LessThan18&lt;/p&gt;&lt;p style=&quot;margin:0px;margin-left:4px;&quot;&gt;LessThan24&lt;/p&gt;&lt;p style=&quot;margin:0px;margin-left:4px;&quot;&gt;LessThan28&lt;/p&gt;&lt;p style=&quot;margin:0px;margin-left:4px;&quot;&gt;LessThan31&lt;/p&gt;&lt;p style=&quot;margin:0px;margin-left:4px;&quot;&gt;LessThan36&lt;/p&gt;&lt;p style=&quot;margin:0px;margin-left:4px;&quot;&gt;LessThan42&lt;/p&gt;&lt;p style=&quot;margin:0px;margin-left:4px;&quot;&gt;LessThan47&lt;/p&gt;&lt;p style=&quot;margin:0px;margin-left:4px;&quot;&gt;LessThan57&lt;/p&gt;&lt;p style=&quot;margin:0px;margin-left:4px;&quot;&gt;MoreThan56&lt;br&gt;&lt;/p&gt;" style="verticalAlign=top;align=left;overflow=fill;fontSize=12;fontFamily=Helvetica;html=1;whiteSpace=wrap;" parent="1" vertex="1">
          <mxGeometry x="1190" y="-820" width="110" height="188" as="geometry" />
        </mxCell>
        <mxCell id="tgPBSSRWqkqk4DsDawLG-34" value="&lt;p style=&quot;margin:0px;margin-top:4px;text-align:center;&quot;&gt;&lt;i&gt;&amp;lt;&amp;lt;enumeration&amp;gt;&amp;gt;&lt;/i&gt;&lt;br&gt;COURSE&lt;br&gt;&lt;/p&gt;&lt;hr size=&quot;1&quot;&gt;&lt;p style=&quot;margin:0px;margin-left:4px;&quot;&gt;- Starter&lt;br&gt;&lt;/p&gt;&lt;p style=&quot;margin:0px;margin-left:4px;&quot;&gt;- mainCourse&lt;br&gt;&lt;/p&gt;&lt;p style=&quot;margin:0px;margin-left:4px;&quot;&gt;- Dessert&lt;/p&gt;" style="verticalAlign=top;align=left;overflow=fill;fontSize=12;fontFamily=Helvetica;html=1;whiteSpace=wrap;" parent="1" vertex="1">
          <mxGeometry x="400" y="-800" width="110" height="90" as="geometry" />
        </mxCell>
        <mxCell id="tgPBSSRWqkqk4DsDawLG-36" value="&lt;p style=&quot;margin:0px;margin-top:4px;text-align:center;&quot;&gt;&lt;i&gt;&amp;lt;&amp;lt;enumeration&amp;gt;&amp;gt;&lt;/i&gt;&lt;br&gt;CRITERIA&lt;br&gt;&lt;/p&gt;&lt;hr size=&quot;1&quot;&gt;&lt;div&gt;&amp;nbsp;FOOD_PREFERENCES&lt;br&gt;&lt;/div&gt;&lt;div&gt;&amp;nbsp;AGE_DIFFERENCE&lt;/div&gt;&lt;div&gt;&amp;nbsp;GENDER_DIVERSITY&lt;/div&gt;&lt;div&gt;&amp;nbsp;PATH_LENGTH&lt;br&gt;&lt;/div&gt;" style="verticalAlign=top;align=left;overflow=fill;fontSize=12;fontFamily=Helvetica;html=1;whiteSpace=wrap;" parent="1" vertex="1">
          <mxGeometry x="1015" y="-130" width="190" height="110" as="geometry" />
        </mxCell>
        <mxCell id="tgPBSSRWqkqk4DsDawLG-38" value="Models" style="text;html=1;strokeColor=none;fillColor=none;align=center;verticalAlign=middle;whiteSpace=wrap;rounded=0;" parent="1" vertex="1">
          <mxGeometry x="51" y="-868" width="60" height="30" as="geometry" />
        </mxCell>
        <mxCell id="tgPBSSRWqkqk4DsDawLG-41" style="edgeStyle=orthogonalEdgeStyle;rounded=0;orthogonalLoop=1;jettySize=auto;html=1;" parent="1" source="tgPBSSRWqkqk4DsDawLG-6" edge="1">
          <mxGeometry relative="1" as="geometry">
            <mxPoint x="425" y="-507.5" as="sourcePoint" />
            <mxPoint x="230" y="-507.5" as="targetPoint" />
            <Array as="points">
              <mxPoint x="305" y="-510" />
              <mxPoint x="305" y="-507" />
            </Array>
          </mxGeometry>
        </mxCell>
        <mxCell id="tgPBSSRWqkqk4DsDawLG-42" value="participant2" style="edgeLabel;html=1;align=center;verticalAlign=middle;resizable=0;points=[];" parent="tgPBSSRWqkqk4DsDawLG-41" vertex="1" connectable="0">
          <mxGeometry x="-0.0784" y="1" relative="1" as="geometry">
            <mxPoint as="offset" />
          </mxGeometry>
        </mxCell>
        <mxCell id="tgPBSSRWqkqk4DsDawLG-55" value="" style="endArrow=open;html=1;endSize=12;startArrow=diamondThin;startSize=14;startFill=0;edgeStyle=orthogonalEdgeStyle;align=left;verticalAlign=bottom;rounded=0;" parent="1" source="tgPBSSRWqkqk4DsDawLG-6" target="tgPBSSRWqkqk4DsDawLG-6" edge="1">
          <mxGeometry x="-0.7895" y="-10" relative="1" as="geometry">
            <mxPoint x="480" y="-506.8499999999999" as="sourcePoint" />
            <mxPoint x="560" y="-459.8499999999999" as="targetPoint" />
            <Array as="points">
              <mxPoint x="405" y="-390" />
              <mxPoint x="520" y="-390" />
            </Array>
            <mxPoint as="offset" />
          </mxGeometry>
        </mxCell>
        <mxCell id="tgPBSSRWqkqk4DsDawLG-56" value="visitedPairs" style="edgeLabel;html=1;align=center;verticalAlign=middle;resizable=0;points=[];" parent="tgPBSSRWqkqk4DsDawLG-55" vertex="1" connectable="0">
          <mxGeometry x="0.3606" y="1" relative="1" as="geometry">
            <mxPoint x="-26" as="offset" />
          </mxGeometry>
        </mxCell>
        <mxCell id="tgPBSSRWqkqk4DsDawLG-57" value="0..1" style="edgeLabel;html=1;align=center;verticalAlign=middle;resizable=0;points=[];" parent="tgPBSSRWqkqk4DsDawLG-55" vertex="1" connectable="0">
          <mxGeometry x="-0.689" y="-1" relative="1" as="geometry">
            <mxPoint x="-14" y="-11" as="offset" />
          </mxGeometry>
        </mxCell>
        <mxCell id="tgPBSSRWqkqk4DsDawLG-58" value="0..*" style="edgeLabel;html=1;align=center;verticalAlign=middle;resizable=0;points=[];" parent="tgPBSSRWqkqk4DsDawLG-55" vertex="1" connectable="0">
          <mxGeometry x="0.751" y="-1" relative="1" as="geometry">
            <mxPoint x="9" as="offset" />
          </mxGeometry>
        </mxCell>
        <mxCell id="tgPBSSRWqkqk4DsDawLG-62" value="1" style="endArrow=open;html=1;endSize=12;startArrow=diamondThin;startSize=14;startFill=1;edgeStyle=orthogonalEdgeStyle;align=left;verticalAlign=bottom;rounded=0;" parent="1" source="tgPBSSRWqkqk4DsDawLG-10" target="tgPBSSRWqkqk4DsDawLG-6" edge="1">
          <mxGeometry x="-0.8788" relative="1" as="geometry">
            <mxPoint x="720" y="-534" as="sourcePoint" />
            <mxPoint x="555" y="-534" as="targetPoint" />
            <Array as="points">
              <mxPoint x="650" y="-550" />
              <mxPoint x="650" y="-550" />
            </Array>
            <mxPoint as="offset" />
          </mxGeometry>
        </mxCell>
        <mxCell id="tgPBSSRWqkqk4DsDawLG-63" value="Pairs" style="edgeLabel;html=1;align=center;verticalAlign=middle;resizable=0;points=[];" parent="tgPBSSRWqkqk4DsDawLG-62" vertex="1" connectable="0">
          <mxGeometry x="0.1152" y="1" relative="1" as="geometry">
            <mxPoint as="offset" />
          </mxGeometry>
        </mxCell>
        <mxCell id="tgPBSSRWqkqk4DsDawLG-64" value="3" style="edgeLabel;html=1;align=center;verticalAlign=middle;resizable=0;points=[];" parent="tgPBSSRWqkqk4DsDawLG-62" vertex="1" connectable="0">
          <mxGeometry x="0.7333" y="2" relative="1" as="geometry">
            <mxPoint y="-9" as="offset" />
          </mxGeometry>
        </mxCell>
        <mxCell id="tgPBSSRWqkqk4DsDawLG-67" value="" style="group" parent="1" vertex="1" connectable="0">
          <mxGeometry x="880" y="-710" width="460" height="124" as="geometry" />
        </mxCell>
        <mxCell id="tgPBSSRWqkqk4DsDawLG-18" value="PairSuccesorList" style="swimlane;fontStyle=1;align=center;verticalAlign=top;childLayout=stackLayout;horizontal=1;startSize=26;horizontalStack=0;resizeParent=1;resizeParentMax=0;resizeLast=0;collapsible=1;marginBottom=0;whiteSpace=wrap;html=1;" parent="tgPBSSRWqkqk4DsDawLG-67" vertex="1">
          <mxGeometry x="102.5" y="52" width="195" height="34" as="geometry" />
        </mxCell>
        <mxCell id="tgPBSSRWqkqk4DsDawLG-19" value="" style="line;strokeWidth=1;fillColor=none;align=left;verticalAlign=middle;spacingTop=-1;spacingLeft=3;spacingRight=3;rotatable=0;labelPosition=right;points=[];portConstraint=eastwest;strokeColor=inherit;" parent="tgPBSSRWqkqk4DsDawLG-18" vertex="1">
          <mxGeometry y="26" width="195" height="8" as="geometry" />
        </mxCell>
        <mxCell id="tgPBSSRWqkqk4DsDawLG-68" value="1" style="endArrow=open;html=1;endSize=12;startArrow=diamondThin;startSize=14;startFill=0;edgeStyle=orthogonalEdgeStyle;align=left;verticalAlign=bottom;rounded=0;" parent="1" source="tgPBSSRWqkqk4DsDawLG-23" target="tgPBSSRWqkqk4DsDawLG-6" edge="1">
          <mxGeometry x="-0.7647" y="5" relative="1" as="geometry">
            <mxPoint x="460" y="-620" as="sourcePoint" />
            <mxPoint x="300" y="-620" as="targetPoint" />
            <Array as="points" />
            <mxPoint as="offset" />
          </mxGeometry>
        </mxCell>
        <mxCell id="tgPBSSRWqkqk4DsDawLG-69" value="Pairs" style="edgeLabel;html=1;align=center;verticalAlign=middle;resizable=0;points=[];" parent="tgPBSSRWqkqk4DsDawLG-68" vertex="1" connectable="0">
          <mxGeometry x="0.1152" y="1" relative="1" as="geometry">
            <mxPoint as="offset" />
          </mxGeometry>
        </mxCell>
        <mxCell id="tgPBSSRWqkqk4DsDawLG-70" value="0..*" style="edgeLabel;html=1;align=center;verticalAlign=middle;resizable=0;points=[];" parent="tgPBSSRWqkqk4DsDawLG-68" vertex="1" connectable="0">
          <mxGeometry x="0.7333" y="2" relative="1" as="geometry">
            <mxPoint x="13" y="-9" as="offset" />
          </mxGeometry>
        </mxCell>
        <mxCell id="tgPBSSRWqkqk4DsDawLG-72" value="1" style="endArrow=open;html=1;endSize=12;startArrow=diamondThin;startSize=14;startFill=0;edgeStyle=orthogonalEdgeStyle;align=left;verticalAlign=bottom;rounded=0;" parent="1" source="tgPBSSRWqkqk4DsDawLG-23" target="tgPBSSRWqkqk4DsDawLG-4" edge="1">
          <mxGeometry x="-0.7647" y="5" relative="1" as="geometry">
            <mxPoint x="415" y="-684" as="sourcePoint" />
            <mxPoint x="415" y="-565" as="targetPoint" />
            <Array as="points">
              <mxPoint x="405" y="-660" />
              <mxPoint x="280" y="-660" />
              <mxPoint x="280" y="-570" />
            </Array>
            <mxPoint as="offset" />
          </mxGeometry>
        </mxCell>
        <mxCell id="tgPBSSRWqkqk4DsDawLG-73" value="Participants" style="edgeLabel;html=1;align=center;verticalAlign=middle;resizable=0;points=[];" parent="tgPBSSRWqkqk4DsDawLG-72" vertex="1" connectable="0">
          <mxGeometry x="0.1152" y="1" relative="1" as="geometry">
            <mxPoint x="3" y="-21" as="offset" />
          </mxGeometry>
        </mxCell>
        <mxCell id="tgPBSSRWqkqk4DsDawLG-74" value="0..*" style="edgeLabel;html=1;align=center;verticalAlign=middle;resizable=0;points=[];" parent="tgPBSSRWqkqk4DsDawLG-72" vertex="1" connectable="0">
          <mxGeometry x="0.7333" y="2" relative="1" as="geometry">
            <mxPoint x="13" y="-9" as="offset" />
          </mxGeometry>
        </mxCell>
        <mxCell id="Bya615chVCOIR74EOYoo-1" value="1" style="edgeStyle=orthogonalEdgeStyle;rounded=0;orthogonalLoop=1;jettySize=auto;html=1;entryX=0.75;entryY=0;entryDx=0;entryDy=0;startArrow=diamondThin;startFill=1;" parent="1" source="tgPBSSRWqkqk4DsDawLG-20" target="tgPBSSRWqkqk4DsDawLG-4" edge="1">
          <mxGeometry x="0.0078" relative="1" as="geometry">
            <Array as="points">
              <mxPoint x="710" y="-690" />
              <mxPoint x="250" y="-690" />
              <mxPoint x="250" y="-610" />
              <mxPoint x="190" y="-610" />
            </Array>
            <mxPoint as="offset" />
          </mxGeometry>
        </mxCell>
        <mxCell id="Bya615chVCOIR74EOYoo-2" value="1" style="edgeLabel;html=1;align=center;verticalAlign=middle;resizable=0;points=[];" parent="Bya615chVCOIR74EOYoo-1" vertex="1" connectable="0">
          <mxGeometry x="-0.9361" y="1" relative="1" as="geometry">
            <mxPoint x="-9" y="11" as="offset" />
          </mxGeometry>
        </mxCell>
        <mxCell id="Bya615chVCOIR74EOYoo-3" value="0..*" style="edgeLabel;html=1;align=center;verticalAlign=middle;resizable=0;points=[];" parent="Bya615chVCOIR74EOYoo-1" vertex="1" connectable="0">
          <mxGeometry x="0.8858" relative="1" as="geometry">
            <mxPoint as="offset" />
          </mxGeometry>
        </mxCell>
        <mxCell id="Bya615chVCOIR74EOYoo-4" value="ParticipantList" style="edgeLabel;html=1;align=center;verticalAlign=middle;resizable=0;points=[];" parent="Bya615chVCOIR74EOYoo-1" vertex="1" connectable="0">
          <mxGeometry x="-0.0149" y="-2" relative="1" as="geometry">
            <mxPoint as="offset" />
          </mxGeometry>
        </mxCell>
        <mxCell id="tgPBSSRWqkqk4DsDawLG-20" value="ParticipantSuccesorList" style="swimlane;fontStyle=1;align=center;verticalAlign=top;childLayout=stackLayout;horizontal=1;startSize=26;horizontalStack=0;resizeParent=1;resizeParentMax=0;resizeLast=0;collapsible=1;marginBottom=0;whiteSpace=wrap;html=1;" parent="1" vertex="1">
          <mxGeometry x="640" y="-650" width="195" height="34" as="geometry" />
        </mxCell>
        <mxCell id="tgPBSSRWqkqk4DsDawLG-21" value="" style="line;strokeWidth=1;fillColor=none;align=left;verticalAlign=middle;spacingTop=-1;spacingLeft=3;spacingRight=3;rotatable=0;labelPosition=right;points=[];portConstraint=eastwest;strokeColor=inherit;" parent="tgPBSSRWqkqk4DsDawLG-20" vertex="1">
          <mxGeometry y="26" width="195" height="8" as="geometry" />
        </mxCell>
        <mxCell id="tgPBSSRWqkqk4DsDawLG-66" style="edgeStyle=orthogonalEdgeStyle;rounded=0;orthogonalLoop=1;jettySize=auto;html=1;" parent="1" source="tgPBSSRWqkqk4DsDawLG-20" target="tgPBSSRWqkqk4DsDawLG-22" edge="1">
          <mxGeometry relative="1" as="geometry">
            <Array as="points">
              <mxPoint x="733" y="-700" />
              <mxPoint x="905" y="-700" />
            </Array>
          </mxGeometry>
        </mxCell>
        <mxCell id="tgPBSSRWqkqk4DsDawLG-80" style="edgeStyle=orthogonalEdgeStyle;rounded=0;orthogonalLoop=1;jettySize=auto;html=1;" parent="1" source="tgPBSSRWqkqk4DsDawLG-87" target="tgPBSSRWqkqk4DsDawLG-18" edge="1">
          <mxGeometry relative="1" as="geometry">
            <Array as="points">
              <mxPoint x="940" y="-230" />
              <mxPoint x="940" y="-600" />
              <mxPoint x="1065" y="-600" />
            </Array>
          </mxGeometry>
        </mxCell>
        <mxCell id="tgPBSSRWqkqk4DsDawLG-82" value="PairSuccesorList" style="edgeLabel;html=1;align=center;verticalAlign=middle;resizable=0;points=[];" parent="tgPBSSRWqkqk4DsDawLG-80" vertex="1" connectable="0">
          <mxGeometry x="-0.0547" relative="1" as="geometry">
            <mxPoint x="43" as="offset" />
          </mxGeometry>
        </mxCell>
        <mxCell id="tgPBSSRWqkqk4DsDawLG-22" value="«abstract»&lt;br&gt;&lt;b&gt;SuccesorList&lt;/b&gt;" style="html=1;whiteSpace=wrap;" parent="1" vertex="1">
          <mxGeometry x="850" y="-772" width="100" height="40" as="geometry" />
        </mxCell>
        <mxCell id="tgPBSSRWqkqk4DsDawLG-65" style="edgeStyle=orthogonalEdgeStyle;rounded=0;orthogonalLoop=1;jettySize=auto;html=1;" parent="1" source="tgPBSSRWqkqk4DsDawLG-18" target="tgPBSSRWqkqk4DsDawLG-22" edge="1">
          <mxGeometry relative="1" as="geometry">
            <Array as="points">
              <mxPoint x="1080" y="-700" />
              <mxPoint x="905" y="-700" />
            </Array>
          </mxGeometry>
        </mxCell>
        <mxCell id="tgPBSSRWqkqk4DsDawLG-86" value="&lt;div&gt;Logic&lt;/div&gt;" style="text;html=1;strokeColor=none;fillColor=none;align=center;verticalAlign=middle;whiteSpace=wrap;rounded=0;" parent="1" vertex="1">
          <mxGeometry x="51" y="-390" width="60" height="30" as="geometry" />
        </mxCell>
        <mxCell id="tgPBSSRWqkqk4DsDawLG-95" style="edgeStyle=orthogonalEdgeStyle;rounded=0;orthogonalLoop=1;jettySize=auto;html=1;" parent="1" source="tgPBSSRWqkqk4DsDawLG-87" target="tgPBSSRWqkqk4DsDawLG-4" edge="1">
          <mxGeometry relative="1" as="geometry" />
        </mxCell>
        <mxCell id="tgPBSSRWqkqk4DsDawLG-101" value="ParticipantList" style="edgeLabel;html=1;align=center;verticalAlign=middle;resizable=0;points=[];" parent="tgPBSSRWqkqk4DsDawLG-95" vertex="1" connectable="0">
          <mxGeometry x="0.6742" y="-3" relative="1" as="geometry">
            <mxPoint x="-3" y="61" as="offset" />
          </mxGeometry>
        </mxCell>
        <mxCell id="tgPBSSRWqkqk4DsDawLG-96" style="edgeStyle=orthogonalEdgeStyle;rounded=0;orthogonalLoop=1;jettySize=auto;html=1;" parent="1" source="tgPBSSRWqkqk4DsDawLG-87" target="tgPBSSRWqkqk4DsDawLG-6" edge="1">
          <mxGeometry relative="1" as="geometry">
            <Array as="points">
              <mxPoint x="370" y="-350" />
              <mxPoint x="370" y="-350" />
            </Array>
          </mxGeometry>
        </mxCell>
        <mxCell id="tgPBSSRWqkqk4DsDawLG-100" value="PairList" style="edgeLabel;html=1;align=center;verticalAlign=middle;resizable=0;points=[];" parent="tgPBSSRWqkqk4DsDawLG-96" vertex="1" connectable="0">
          <mxGeometry x="-0.1429" y="-2" relative="1" as="geometry">
            <mxPoint x="-4" y="55" as="offset" />
          </mxGeometry>
        </mxCell>
        <mxCell id="tgPBSSRWqkqk4DsDawLG-99" style="edgeStyle=orthogonalEdgeStyle;rounded=0;orthogonalLoop=1;jettySize=auto;html=1;" parent="1" source="tgPBSSRWqkqk4DsDawLG-87" target="tgPBSSRWqkqk4DsDawLG-10" edge="1">
          <mxGeometry relative="1" as="geometry">
            <Array as="points">
              <mxPoint x="690" y="-290" />
            </Array>
          </mxGeometry>
        </mxCell>
        <mxCell id="tgPBSSRWqkqk4DsDawLG-102" value="&lt;div&gt;groupListCourse01&lt;/div&gt;" style="edgeLabel;html=1;align=center;verticalAlign=middle;resizable=0;points=[];" parent="tgPBSSRWqkqk4DsDawLG-99" vertex="1" connectable="0">
          <mxGeometry x="0.6176" y="-1" relative="1" as="geometry">
            <mxPoint x="-11" y="-1" as="offset" />
          </mxGeometry>
        </mxCell>
        <mxCell id="Xu3pypZPAqOBUNZXEyIU-1" style="edgeStyle=orthogonalEdgeStyle;rounded=0;orthogonalLoop=1;jettySize=auto;html=1;" edge="1" parent="1" source="tgPBSSRWqkqk4DsDawLG-87" target="tgPBSSRWqkqk4DsDawLG-23">
          <mxGeometry relative="1" as="geometry">
            <Array as="points">
              <mxPoint x="290" y="-468" />
              <mxPoint x="300" y="-468" />
            </Array>
          </mxGeometry>
        </mxCell>
        <mxCell id="Xu3pypZPAqOBUNZXEyIU-2" value="&lt;div&gt;canceledList&lt;/div&gt;" style="edgeLabel;html=1;align=center;verticalAlign=middle;resizable=0;points=[];" vertex="1" connectable="0" parent="Xu3pypZPAqOBUNZXEyIU-1">
          <mxGeometry x="-0.2364" y="1" relative="1" as="geometry">
            <mxPoint as="offset" />
          </mxGeometry>
        </mxCell>
        <mxCell id="tgPBSSRWqkqk4DsDawLG-87" value="DataList" style="swimlane;fontStyle=1;align=center;verticalAlign=top;childLayout=stackLayout;horizontal=1;startSize=20;horizontalStack=0;resizeParent=1;resizeParentMax=0;resizeLast=0;collapsible=1;marginBottom=0;whiteSpace=wrap;html=1;" parent="1" vertex="1">
          <mxGeometry x="250" y="-310" width="280" height="110" as="geometry" />
        </mxCell>
        <mxCell id="tgPBSSRWqkqk4DsDawLG-89" value="" style="line;strokeWidth=1;fillColor=none;align=left;verticalAlign=middle;spacingTop=-1;spacingLeft=3;spacingRight=3;rotatable=0;labelPosition=right;points=[];portConstraint=eastwest;strokeColor=inherit;" parent="tgPBSSRWqkqk4DsDawLG-87" vertex="1">
          <mxGeometry y="20" width="280" height="20" as="geometry" />
        </mxCell>
        <mxCell id="T4trGRCKs-SLKCmKjAML-4" value="&lt;div align=&quot;left&quot;&gt;+ addParticipantToList(Participant) : void&lt;/div&gt;&lt;div align=&quot;left&quot;&gt;+ addPairToList(Pair) : void&lt;/div&gt;&lt;div align=&quot;left&quot;&gt;+ addUnmatchedParticipantToList(Participant) : void&lt;br&gt;&lt;/div&gt;&lt;div align=&quot;left&quot;&gt;+ removePairFromList(Pair) : void&lt;br&gt;&lt;/div&gt;&lt;div&gt;+ exportToJsonFile(String filename) : void&lt;br&gt;&lt;/div&gt;" style="text;html=1;strokeColor=none;fillColor=none;align=left;verticalAlign=middle;whiteSpace=wrap;rounded=0;" parent="tgPBSSRWqkqk4DsDawLG-87" vertex="1">
          <mxGeometry y="40" width="280" height="70" as="geometry" />
        </mxCell>
        <mxCell id="tgPBSSRWqkqk4DsDawLG-105" value="&lt;span style=&quot;font-weight: normal;&quot;&gt;&amp;lt;&amp;lt;interface&amp;gt;&amp;gt;&lt;/span&gt;&lt;br&gt;&lt;div&gt;Calculation&lt;br&gt;&lt;/div&gt;" style="swimlane;fontStyle=1;align=center;verticalAlign=top;childLayout=stackLayout;horizontal=1;startSize=40;horizontalStack=0;resizeParent=1;resizeParentMax=0;resizeLast=0;collapsible=1;marginBottom=0;whiteSpace=wrap;html=1;" parent="1" vertex="1">
          <mxGeometry x="465" y="10" width="310" height="140" as="geometry" />
        </mxCell>
        <mxCell id="tgPBSSRWqkqk4DsDawLG-107" value="" style="line;strokeWidth=1;fillColor=none;align=left;verticalAlign=middle;spacingTop=-1;spacingLeft=3;spacingRight=3;rotatable=0;labelPosition=right;points=[];portConstraint=eastwest;strokeColor=inherit;" parent="tgPBSSRWqkqk4DsDawLG-105" vertex="1">
          <mxGeometry y="40" width="310" height="8" as="geometry" />
        </mxCell>
        <mxCell id="tgPBSSRWqkqk4DsDawLG-108" value="&lt;div&gt;+ calculateAgeDifference() : int&lt;/div&gt;&lt;div&gt;+ calculateSexDiversity() : double&lt;/div&gt;&lt;div&gt;+ calculatePathLength() : double&lt;/div&gt;&lt;div&gt;+ calculateDistanceBetweenKitchenAndParty() : double&lt;br&gt;&lt;/div&gt;&lt;div&gt;+ calculateFoodPreference() : double&lt;/div&gt;&lt;div&gt;+ calculateWeightedScore() : double&lt;/div&gt;" style="text;strokeColor=none;fillColor=none;align=left;verticalAlign=top;spacingLeft=4;spacingRight=4;overflow=hidden;rotatable=0;points=[[0,0.5],[1,0.5]];portConstraint=eastwest;whiteSpace=wrap;html=1;" parent="tgPBSSRWqkqk4DsDawLG-105" vertex="1">
          <mxGeometry y="48" width="310" height="92" as="geometry" />
        </mxCell>
        <mxCell id="tgPBSSRWqkqk4DsDawLG-114" style="edgeStyle=orthogonalEdgeStyle;rounded=0;orthogonalLoop=1;jettySize=auto;html=1;" parent="1" source="tgPBSSRWqkqk4DsDawLG-111" target="tgPBSSRWqkqk4DsDawLG-29" edge="1">
          <mxGeometry relative="1" as="geometry">
            <Array as="points">
              <mxPoint x="790" y="-390" />
              <mxPoint x="1160" y="-390" />
              <mxPoint x="1160" y="-516" />
            </Array>
          </mxGeometry>
        </mxCell>
        <mxCell id="tgPBSSRWqkqk4DsDawLG-115" value="Event" style="edgeLabel;html=1;align=center;verticalAlign=middle;resizable=0;points=[];" parent="tgPBSSRWqkqk4DsDawLG-114" vertex="1" connectable="0">
          <mxGeometry x="0.1314" y="1" relative="1" as="geometry">
            <mxPoint as="offset" />
          </mxGeometry>
        </mxCell>
        <mxCell id="tgPBSSRWqkqk4DsDawLG-111" value="ReadCSV" style="swimlane;fontStyle=1;align=center;verticalAlign=top;childLayout=stackLayout;horizontal=1;startSize=26;horizontalStack=0;resizeParent=1;resizeParentMax=0;resizeLast=0;collapsible=1;marginBottom=0;whiteSpace=wrap;html=1;" parent="1" vertex="1">
          <mxGeometry x="630" y="-220" width="300" height="110" as="geometry" />
        </mxCell>
        <mxCell id="T4trGRCKs-SLKCmKjAML-5" value="&lt;div&gt;+ AddressTable : Hashmap&amp;lt;String,List&amp;lt;Participant&amp;gt;&amp;gt;&lt;/div&gt;" style="text;strokeColor=none;fillColor=none;align=left;verticalAlign=top;spacingLeft=4;spacingRight=4;overflow=hidden;rotatable=0;points=[[0,0.5],[1,0.5]];portConstraint=eastwest;whiteSpace=wrap;html=1;" parent="tgPBSSRWqkqk4DsDawLG-111" vertex="1">
          <mxGeometry y="26" width="300" height="24" as="geometry" />
        </mxCell>
        <mxCell id="tgPBSSRWqkqk4DsDawLG-112" value="" style="line;strokeWidth=1;fillColor=none;align=left;verticalAlign=middle;spacingTop=-1;spacingLeft=3;spacingRight=3;rotatable=0;labelPosition=right;points=[];portConstraint=eastwest;strokeColor=inherit;" parent="tgPBSSRWqkqk4DsDawLG-111" vertex="1">
          <mxGeometry y="50" width="300" height="8" as="geometry" />
        </mxCell>
        <mxCell id="tgPBSSRWqkqk4DsDawLG-113" value="&lt;div&gt;+ read_file(File) : List&amp;lt;String[]&amp;gt;&lt;/div&gt;&lt;div&gt;+ addParticipantAndPair(List&amp;lt;String[]&amp;gt;) : void&lt;br&gt;&lt;/div&gt;&lt;div&gt;+ addPartyLocation(List&amp;lt;String[]&amp;gt; list) : void&lt;br&gt;&lt;/div&gt;" style="text;strokeColor=none;fillColor=none;align=left;verticalAlign=top;spacingLeft=4;spacingRight=4;overflow=hidden;rotatable=0;points=[[0,0.5],[1,0.5]];portConstraint=eastwest;whiteSpace=wrap;html=1;" parent="tgPBSSRWqkqk4DsDawLG-111" vertex="1">
          <mxGeometry y="58" width="300" height="52" as="geometry" />
        </mxCell>
        <mxCell id="tgPBSSRWqkqk4DsDawLG-116" value="&lt;p style=&quot;margin:0px;margin-top:4px;text-align:center;&quot;&gt;&lt;i&gt;&amp;lt;&amp;lt;enumeration&amp;gt;&amp;gt;&lt;/i&gt;&lt;br&gt;&lt;/p&gt;&lt;p style=&quot;margin:0px;margin-top:4px;text-align:center;&quot;&gt;FOOD_PREFERENCE&lt;br&gt;&lt;/p&gt;&lt;hr size=&quot;1&quot;&gt;&lt;p style=&quot;margin:0px;margin-left:4px;&quot;&gt;- meat&lt;/p&gt;&lt;p style=&quot;margin:0px;margin-left:4px;&quot;&gt;- none&lt;/p&gt;&lt;p style=&quot;margin:0px;margin-left:4px;&quot;&gt;- veggie&lt;/p&gt;&lt;p style=&quot;margin:0px;margin-left:4px;&quot;&gt;- vegan&lt;br&gt;&lt;/p&gt;" style="verticalAlign=top;align=left;overflow=fill;fontSize=12;fontFamily=Helvetica;html=1;whiteSpace=wrap;" parent="1" vertex="1">
          <mxGeometry x="560" y="-830" width="140" height="110" as="geometry" />
        </mxCell>
        <mxCell id="tgPBSSRWqkqk4DsDawLG-118" value="&lt;span style=&quot;font-weight: normal;&quot;&gt;&amp;lt;&amp;lt;interface&amp;gt;&amp;gt;&lt;/span&gt;&lt;br&gt;&lt;div&gt;Utility&lt;br&gt;&lt;/div&gt;" style="swimlane;fontStyle=1;align=center;verticalAlign=top;childLayout=stackLayout;horizontal=1;startSize=40;horizontalStack=0;resizeParent=1;resizeParentMax=0;resizeLast=0;collapsible=1;marginBottom=0;whiteSpace=wrap;html=1;" parent="1" vertex="1">
          <mxGeometry x="-270" y="-180" width="190" height="120" as="geometry" />
        </mxCell>
        <mxCell id="tgPBSSRWqkqk4DsDawLG-119" value="" style="line;strokeWidth=1;fillColor=none;align=left;verticalAlign=middle;spacingTop=-1;spacingLeft=3;spacingRight=3;rotatable=0;labelPosition=right;points=[];portConstraint=eastwest;strokeColor=inherit;" parent="tgPBSSRWqkqk4DsDawLG-118" vertex="1">
          <mxGeometry y="40" width="190" height="8" as="geometry" />
        </mxCell>
        <mxCell id="tgPBSSRWqkqk4DsDawLG-120" value="&lt;div&gt;+ show() : String&lt;/div&gt;&lt;div&gt;+ hashCode() : int&lt;/div&gt;&lt;div&gt;+ Equal(Object) : boolean&lt;br&gt;&lt;/div&gt;&lt;div&gt;+ toJson() : JSONObject&lt;br&gt;&lt;/div&gt;" style="text;strokeColor=none;fillColor=none;align=left;verticalAlign=top;spacingLeft=4;spacingRight=4;overflow=hidden;rotatable=0;points=[[0,0.5],[1,0.5]];portConstraint=eastwest;whiteSpace=wrap;html=1;" parent="tgPBSSRWqkqk4DsDawLG-118" vertex="1">
          <mxGeometry y="48" width="190" height="72" as="geometry" />
        </mxCell>
        <mxCell id="tgPBSSRWqkqk4DsDawLG-121" style="edgeStyle=orthogonalEdgeStyle;rounded=0;orthogonalLoop=1;jettySize=auto;html=1;dashed=1;dashPattern=8 8;endArrow=block;endFill=0;" parent="1" source="tgPBSSRWqkqk4DsDawLG-87" target="tgPBSSRWqkqk4DsDawLG-118" edge="1">
          <mxGeometry relative="1" as="geometry">
            <mxPoint x="430" y="-140" as="sourcePoint" />
            <mxPoint x="320" y="-110" as="targetPoint" />
            <Array as="points">
              <mxPoint x="165" y="-240" />
            </Array>
          </mxGeometry>
        </mxCell>
        <mxCell id="tgPBSSRWqkqk4DsDawLG-122" value="&amp;lt;&amp;lt; use&amp;gt;&amp;gt;" style="edgeLabel;html=1;align=center;verticalAlign=middle;resizable=0;points=[];" parent="tgPBSSRWqkqk4DsDawLG-121" vertex="1" connectable="0">
          <mxGeometry x="0.3057" relative="1" as="geometry">
            <mxPoint x="8" y="10" as="offset" />
          </mxGeometry>
        </mxCell>
        <mxCell id="tgPBSSRWqkqk4DsDawLG-129" style="edgeStyle=orthogonalEdgeStyle;rounded=0;orthogonalLoop=1;jettySize=auto;html=1;" parent="1" source="tgPBSSRWqkqk4DsDawLG-123" target="tgPBSSRWqkqk4DsDawLG-87" edge="1">
          <mxGeometry relative="1" as="geometry">
            <Array as="points">
              <mxPoint x="390" y="-220" />
              <mxPoint x="390" y="-220" />
            </Array>
          </mxGeometry>
        </mxCell>
        <mxCell id="tgPBSSRWqkqk4DsDawLG-130" value="DataList" style="edgeLabel;html=1;align=center;verticalAlign=middle;resizable=0;points=[];" parent="tgPBSSRWqkqk4DsDawLG-129" vertex="1" connectable="0">
          <mxGeometry x="-0.6648" y="1" relative="1" as="geometry">
            <mxPoint as="offset" />
          </mxGeometry>
        </mxCell>
        <mxCell id="tgPBSSRWqkqk4DsDawLG-123" value="ListManagement" style="swimlane;fontStyle=1;align=center;verticalAlign=top;childLayout=stackLayout;horizontal=1;startSize=26;horizontalStack=0;resizeParent=1;resizeParentMax=0;resizeLast=0;collapsible=1;marginBottom=0;whiteSpace=wrap;html=1;" parent="1" vertex="1">
          <mxGeometry x="70" y="-90" width="360" height="340" as="geometry" />
        </mxCell>
        <mxCell id="tgPBSSRWqkqk4DsDawLG-124" value="&lt;div&gt;- courseCounter : int&lt;br&gt;&lt;/div&gt;" style="text;strokeColor=none;fillColor=none;align=left;verticalAlign=top;spacingLeft=4;spacingRight=4;overflow=hidden;rotatable=0;points=[[0,0.5],[1,0.5]];portConstraint=eastwest;whiteSpace=wrap;html=1;" parent="tgPBSSRWqkqk4DsDawLG-123" vertex="1">
          <mxGeometry y="26" width="360" height="24" as="geometry" />
        </mxCell>
        <mxCell id="tgPBSSRWqkqk4DsDawLG-125" value="" style="line;strokeWidth=1;fillColor=none;align=left;verticalAlign=middle;spacingTop=-1;spacingLeft=3;spacingRight=3;rotatable=0;labelPosition=right;points=[];portConstraint=eastwest;strokeColor=inherit;" parent="tgPBSSRWqkqk4DsDawLG-123" vertex="1">
          <mxGeometry y="50" width="360" height="8" as="geometry" />
        </mxCell>
        <mxCell id="tgPBSSRWqkqk4DsDawLG-126" value="&lt;div&gt;- editCriteria() : void&lt;/div&gt;&lt;div&gt;- makeBestPair(Participant, List&amp;lt;Participant&amp;gt;) : Pair&lt;/div&gt;&lt;div&gt;- addValidPairsIntoPairList(List&amp;lt;Participant&amp;gt;,List&amp;lt;Participant&amp;gt;) : void&lt;br&gt;&lt;/div&gt;&lt;div&gt;- makeBestGroup(Pair) : Group&lt;/div&gt;&lt;div&gt;- makeBestGroupCourse3(Pair,List&amp;lt;Pair&amp;gt;) : Group&lt;br&gt;&lt;/div&gt;&lt;div&gt;&lt;div&gt;- makeBestPairList() : void &lt;br&gt;&lt;/div&gt;- makeBestGroupList() : void&lt;/div&gt;&lt;div&gt;- checkValidFoodPreference(Group) : boolean&lt;br&gt;&lt;/div&gt;&lt;div&gt;- notContainsPairedPairs(Group,Group) : boolean&lt;/div&gt;&lt;div&gt;- countUncookedPair(Group) : int&lt;/div&gt;&lt;div&gt;- findCookPair(Group) : boolean&lt;/div&gt;&lt;div&gt;- pairAndGroupBuilding() : void&lt;br&gt;&lt;/div&gt;&lt;div&gt;- containsPairedParticipant(Pair,Participant,Participant) : boolean&lt;/div&gt;&lt;div&gt;- addToGroup(Group) : void&lt;/div&gt;&lt;div&gt;- notContainsPairedPairs(Group,Group) : boolean&lt;/div&gt;&lt;div&gt;- addMetAndCookPair(Group) : void&lt;br&gt;&lt;/div&gt;&lt;div&gt;- allCooked(Group) : boolean&lt;/div&gt;" style="text;strokeColor=none;fillColor=none;align=left;verticalAlign=top;spacingLeft=4;spacingRight=4;overflow=hidden;rotatable=0;points=[[0,0.5],[1,0.5]];portConstraint=eastwest;whiteSpace=wrap;html=1;" parent="tgPBSSRWqkqk4DsDawLG-123" vertex="1">
          <mxGeometry y="58" width="360" height="282" as="geometry" />
        </mxCell>
        <mxCell id="tgPBSSRWqkqk4DsDawLG-127" style="edgeStyle=orthogonalEdgeStyle;rounded=0;orthogonalLoop=1;jettySize=auto;html=1;dashed=1;dashPattern=8 8;endArrow=block;endFill=0;" parent="1" source="tgPBSSRWqkqk4DsDawLG-10" target="tgPBSSRWqkqk4DsDawLG-105" edge="1">
          <mxGeometry relative="1" as="geometry">
            <mxPoint x="350" y="-266" as="sourcePoint" />
            <mxPoint x="300" y="-160" as="targetPoint" />
            <Array as="points">
              <mxPoint x="790" y="-430" />
              <mxPoint x="600" y="-430" />
            </Array>
          </mxGeometry>
        </mxCell>
        <mxCell id="tgPBSSRWqkqk4DsDawLG-128" value="&amp;lt;&amp;lt; use&amp;gt;&amp;gt;" style="edgeLabel;html=1;align=center;verticalAlign=middle;resizable=0;points=[];" parent="tgPBSSRWqkqk4DsDawLG-127" vertex="1" connectable="0">
          <mxGeometry x="0.3057" relative="1" as="geometry">
            <mxPoint y="141" as="offset" />
          </mxGeometry>
        </mxCell>
        <mxCell id="tgPBSSRWqkqk4DsDawLG-133" value="" style="shape=folder;fontStyle=1;spacingTop=10;tabWidth=59;tabHeight=30;tabPosition=left;html=1;whiteSpace=wrap;" parent="1" vertex="1">
          <mxGeometry x="50" y="290" width="1122.5" height="430" as="geometry" />
        </mxCell>
        <mxCell id="tgPBSSRWqkqk4DsDawLG-134" value="View" style="text;html=1;strokeColor=none;fillColor=none;align=center;verticalAlign=middle;whiteSpace=wrap;rounded=0;" parent="1" vertex="1">
          <mxGeometry x="50" y="290" width="60" height="30" as="geometry" />
        </mxCell>
        <mxCell id="tgPBSSRWqkqk4DsDawLG-140" style="edgeStyle=orthogonalEdgeStyle;rounded=0;orthogonalLoop=1;jettySize=auto;html=1;" parent="1" source="Xu3pypZPAqOBUNZXEyIU-67" target="tgPBSSRWqkqk4DsDawLG-123" edge="1">
          <mxGeometry relative="1" as="geometry">
            <Array as="points">
              <mxPoint x="250" y="360" />
              <mxPoint x="250" y="360" />
            </Array>
            <mxPoint x="412.4999999999998" y="390.0000000000002" as="sourcePoint" />
          </mxGeometry>
        </mxCell>
        <mxCell id="tgPBSSRWqkqk4DsDawLG-141" value="ListManagement" style="edgeLabel;html=1;align=center;verticalAlign=middle;resizable=0;points=[];" parent="tgPBSSRWqkqk4DsDawLG-140" vertex="1" connectable="0">
          <mxGeometry x="-0.3621" y="-3" relative="1" as="geometry">
            <mxPoint as="offset" />
          </mxGeometry>
        </mxCell>
        <mxCell id="Xu3pypZPAqOBUNZXEyIU-58" style="edgeStyle=orthogonalEdgeStyle;rounded=0;orthogonalLoop=1;jettySize=auto;html=1;" edge="1" parent="1" source="Xu3pypZPAqOBUNZXEyIU-67" target="tgPBSSRWqkqk4DsDawLG-111">
          <mxGeometry relative="1" as="geometry">
            <mxPoint x="502.5" y="432.0000000000002" as="sourcePoint" />
          </mxGeometry>
        </mxCell>
        <mxCell id="Xu3pypZPAqOBUNZXEyIU-59" value="&lt;div&gt;readCSV&lt;/div&gt;" style="edgeLabel;html=1;align=center;verticalAlign=middle;resizable=0;points=[];" vertex="1" connectable="0" parent="Xu3pypZPAqOBUNZXEyIU-58">
          <mxGeometry x="0.0549" y="-4" relative="1" as="geometry">
            <mxPoint as="offset" />
          </mxGeometry>
        </mxCell>
        <mxCell id="Xu3pypZPAqOBUNZXEyIU-61" style="edgeStyle=orthogonalEdgeStyle;rounded=0;orthogonalLoop=1;jettySize=auto;html=1;" edge="1" parent="1" source="Xu3pypZPAqOBUNZXEyIU-67" target="tgPBSSRWqkqk4DsDawLG-87">
          <mxGeometry relative="1" as="geometry">
            <mxPoint x="460.00000000000045" y="390.0000000000002" as="sourcePoint" />
            <Array as="points">
              <mxPoint x="440" y="95" />
              <mxPoint x="450" y="95" />
            </Array>
          </mxGeometry>
        </mxCell>
        <mxCell id="Xu3pypZPAqOBUNZXEyIU-62" value="dataList" style="edgeLabel;html=1;align=center;verticalAlign=middle;resizable=0;points=[];" vertex="1" connectable="0" parent="Xu3pypZPAqOBUNZXEyIU-61">
          <mxGeometry x="-0.3288" y="-2" relative="1" as="geometry">
            <mxPoint as="offset" />
          </mxGeometry>
        </mxCell>
        <mxCell id="Bya615chVCOIR74EOYoo-5" style="edgeStyle=orthogonalEdgeStyle;rounded=0;orthogonalLoop=1;jettySize=auto;html=1;startArrow=diamondThin;startFill=1;" parent="1" source="tgPBSSRWqkqk4DsDawLG-18" target="tgPBSSRWqkqk4DsDawLG-6" edge="1">
          <mxGeometry relative="1" as="geometry">
            <Array as="points">
              <mxPoint x="1020" y="-680" />
              <mxPoint x="527" y="-680" />
            </Array>
          </mxGeometry>
        </mxCell>
        <mxCell id="Bya615chVCOIR74EOYoo-6" value="1" style="edgeLabel;html=1;align=center;verticalAlign=middle;resizable=0;points=[];" parent="Bya615chVCOIR74EOYoo-5" vertex="1" connectable="0">
          <mxGeometry x="-0.8847" relative="1" as="geometry">
            <mxPoint x="4" y="14" as="offset" />
          </mxGeometry>
        </mxCell>
        <mxCell id="Bya615chVCOIR74EOYoo-7" value="0..*" style="edgeLabel;html=1;align=center;verticalAlign=middle;resizable=0;points=[];" parent="Bya615chVCOIR74EOYoo-5" vertex="1" connectable="0">
          <mxGeometry x="0.9436" y="-3" relative="1" as="geometry">
            <mxPoint x="16" as="offset" />
          </mxGeometry>
        </mxCell>
        <mxCell id="Bya615chVCOIR74EOYoo-8" value="&lt;div&gt;PairList&lt;/div&gt;" style="edgeLabel;html=1;align=center;verticalAlign=middle;resizable=0;points=[];" parent="Bya615chVCOIR74EOYoo-5" vertex="1" connectable="0">
          <mxGeometry x="-0.2565" y="1" relative="1" as="geometry">
            <mxPoint as="offset" />
          </mxGeometry>
        </mxCell>
        <mxCell id="T4trGRCKs-SLKCmKjAML-1" style="edgeStyle=orthogonalEdgeStyle;rounded=0;orthogonalLoop=1;jettySize=auto;html=1;" parent="1" source="tgPBSSRWqkqk4DsDawLG-87" target="tgPBSSRWqkqk4DsDawLG-4" edge="1">
          <mxGeometry relative="1" as="geometry">
            <mxPoint x="300" y="-283" as="sourcePoint" />
            <mxPoint x="160" y="-440" as="targetPoint" />
            <Array as="points">
              <mxPoint x="310" y="-330" />
              <mxPoint x="210" y="-330" />
            </Array>
          </mxGeometry>
        </mxCell>
        <mxCell id="T4trGRCKs-SLKCmKjAML-2" value="&lt;div&gt;unpairedParticipants&lt;/div&gt;" style="edgeLabel;html=1;align=center;verticalAlign=middle;resizable=0;points=[];" parent="T4trGRCKs-SLKCmKjAML-1" vertex="1" connectable="0">
          <mxGeometry x="0.6742" y="-3" relative="1" as="geometry">
            <mxPoint x="17" y="18" as="offset" />
          </mxGeometry>
        </mxCell>
        <mxCell id="T4trGRCKs-SLKCmKjAML-9" style="edgeStyle=orthogonalEdgeStyle;rounded=0;orthogonalLoop=1;jettySize=auto;html=1;dashed=1;dashPattern=8 8;endArrow=block;endFill=0;" parent="1" source="tgPBSSRWqkqk4DsDawLG-6" target="tgPBSSRWqkqk4DsDawLG-105" edge="1">
          <mxGeometry relative="1" as="geometry">
            <mxPoint x="800" y="-455" as="sourcePoint" />
            <mxPoint x="960" y="-70" as="targetPoint" />
            <Array as="points">
              <mxPoint x="560" y="-20" />
              <mxPoint x="560" y="-20" />
            </Array>
          </mxGeometry>
        </mxCell>
        <mxCell id="T4trGRCKs-SLKCmKjAML-12" value="1" style="endArrow=open;html=1;endSize=12;startArrow=diamondThin;startSize=14;startFill=1;edgeStyle=orthogonalEdgeStyle;align=left;verticalAlign=bottom;rounded=0;" parent="1" source="tgPBSSRWqkqk4DsDawLG-10" target="tgPBSSRWqkqk4DsDawLG-6" edge="1">
          <mxGeometry x="-0.8788" relative="1" as="geometry">
            <mxPoint x="680" y="-540" as="sourcePoint" />
            <mxPoint x="600" y="-540" as="targetPoint" />
            <Array as="points" />
            <mxPoint as="offset" />
          </mxGeometry>
        </mxCell>
        <mxCell id="T4trGRCKs-SLKCmKjAML-13" value="MetPairs" style="edgeLabel;html=1;align=center;verticalAlign=middle;resizable=0;points=[];" parent="T4trGRCKs-SLKCmKjAML-12" vertex="1" connectable="0">
          <mxGeometry x="0.1152" y="1" relative="1" as="geometry">
            <mxPoint as="offset" />
          </mxGeometry>
        </mxCell>
        <mxCell id="T4trGRCKs-SLKCmKjAML-14" value="3" style="edgeLabel;html=1;align=center;verticalAlign=middle;resizable=0;points=[];" parent="T4trGRCKs-SLKCmKjAML-12" vertex="1" connectable="0">
          <mxGeometry x="0.7333" y="2" relative="1" as="geometry">
            <mxPoint y="-9" as="offset" />
          </mxGeometry>
        </mxCell>
        <mxCell id="vDYU_RAuPDzUBws8C-vI-1" style="edgeStyle=orthogonalEdgeStyle;rounded=0;orthogonalLoop=1;jettySize=auto;html=1;" parent="1" source="tgPBSSRWqkqk4DsDawLG-87" target="tgPBSSRWqkqk4DsDawLG-10" edge="1">
          <mxGeometry relative="1" as="geometry">
            <Array as="points">
              <mxPoint x="740" y="-280" />
            </Array>
            <mxPoint x="520" y="-280" as="sourcePoint" />
            <mxPoint x="740" y="-455" as="targetPoint" />
          </mxGeometry>
        </mxCell>
        <mxCell id="vDYU_RAuPDzUBws8C-vI-2" value="&lt;div&gt;groupListCourse02&lt;/div&gt;" style="edgeLabel;html=1;align=center;verticalAlign=middle;resizable=0;points=[];" parent="vDYU_RAuPDzUBws8C-vI-1" vertex="1" connectable="0">
          <mxGeometry x="0.6176" y="-1" relative="1" as="geometry">
            <mxPoint x="-3" y="45" as="offset" />
          </mxGeometry>
        </mxCell>
        <mxCell id="vDYU_RAuPDzUBws8C-vI-3" style="edgeStyle=orthogonalEdgeStyle;rounded=0;orthogonalLoop=1;jettySize=auto;html=1;" parent="1" source="tgPBSSRWqkqk4DsDawLG-87" target="tgPBSSRWqkqk4DsDawLG-10" edge="1">
          <mxGeometry relative="1" as="geometry">
            <Array as="points">
              <mxPoint x="860" y="-270" />
            </Array>
            <mxPoint x="530" y="-270" as="sourcePoint" />
            <mxPoint x="750" y="-445" as="targetPoint" />
          </mxGeometry>
        </mxCell>
        <mxCell id="vDYU_RAuPDzUBws8C-vI-4" value="&lt;div&gt;groupListCourse03&lt;/div&gt;" style="edgeLabel;html=1;align=center;verticalAlign=middle;resizable=0;points=[];" parent="vDYU_RAuPDzUBws8C-vI-3" vertex="1" connectable="0">
          <mxGeometry x="0.6176" y="-1" relative="1" as="geometry">
            <mxPoint x="2" y="72" as="offset" />
          </mxGeometry>
        </mxCell>
        <mxCell id="vDYU_RAuPDzUBws8C-vI-7" value="&amp;lt;&amp;lt; use&amp;gt;&amp;gt;" style="edgeLabel;html=1;align=center;verticalAlign=middle;resizable=0;points=[];" parent="1" vertex="1" connectable="0">
          <mxGeometry x="640" y="-69.71428571428555" as="geometry">
            <mxPoint x="-81" y="-59" as="offset" />
          </mxGeometry>
        </mxCell>
        <mxCell id="Xu3pypZPAqOBUNZXEyIU-4" value="Utility" style="text;html=1;strokeColor=none;fillColor=none;align=center;verticalAlign=middle;whiteSpace=wrap;rounded=0;" vertex="1" parent="1">
          <mxGeometry x="-290" y="-270" width="60" height="30" as="geometry" />
        </mxCell>
        <mxCell id="Xu3pypZPAqOBUNZXEyIU-5" value="JsonExport" style="swimlane;fontStyle=1;align=center;verticalAlign=top;childLayout=stackLayout;horizontal=1;startSize=26;horizontalStack=0;resizeParent=1;resizeParentMax=0;resizeLast=0;collapsible=1;marginBottom=0;whiteSpace=wrap;html=1;" vertex="1" parent="1">
          <mxGeometry x="1000" y="-230" width="300" height="70" as="geometry" />
        </mxCell>
        <mxCell id="Xu3pypZPAqOBUNZXEyIU-7" value="" style="line;strokeWidth=1;fillColor=none;align=left;verticalAlign=middle;spacingTop=-1;spacingLeft=3;spacingRight=3;rotatable=0;labelPosition=right;points=[];portConstraint=eastwest;strokeColor=inherit;" vertex="1" parent="Xu3pypZPAqOBUNZXEyIU-5">
          <mxGeometry y="26" width="300" height="8" as="geometry" />
        </mxCell>
        <mxCell id="Xu3pypZPAqOBUNZXEyIU-8" value="+ writeJsonToFile(JsonObject,String) : void" style="text;strokeColor=none;fillColor=none;align=left;verticalAlign=top;spacingLeft=4;spacingRight=4;overflow=hidden;rotatable=0;points=[[0,0.5],[1,0.5]];portConstraint=eastwest;whiteSpace=wrap;html=1;" vertex="1" parent="Xu3pypZPAqOBUNZXEyIU-5">
          <mxGeometry y="34" width="300" height="36" as="geometry" />
        </mxCell>
        <mxCell id="Xu3pypZPAqOBUNZXEyIU-9" value="" style="endArrow=open;html=1;endSize=12;startArrow=diamondThin;startSize=14;startFill=0;edgeStyle=orthogonalEdgeStyle;align=left;verticalAlign=bottom;rounded=0;" edge="1" parent="1" source="Xu3pypZPAqOBUNZXEyIU-5" target="tgPBSSRWqkqk4DsDawLG-10">
          <mxGeometry x="-0.7895" y="-10" relative="1" as="geometry">
            <mxPoint x="1075" y="-230" as="sourcePoint" />
            <mxPoint x="1256" y="-305" as="targetPoint" />
            <Array as="points">
              <mxPoint x="1141" y="-270" />
              <mxPoint x="1256" y="-270" />
              <mxPoint x="1256" y="-610" />
              <mxPoint x="790" y="-610" />
            </Array>
            <mxPoint as="offset" />
          </mxGeometry>
        </mxCell>
        <mxCell id="Xu3pypZPAqOBUNZXEyIU-10" value="Groups" style="edgeLabel;html=1;align=center;verticalAlign=middle;resizable=0;points=[];" vertex="1" connectable="0" parent="Xu3pypZPAqOBUNZXEyIU-9">
          <mxGeometry x="0.3606" y="1" relative="1" as="geometry">
            <mxPoint x="177" y="99" as="offset" />
          </mxGeometry>
        </mxCell>
        <mxCell id="Xu3pypZPAqOBUNZXEyIU-11" value="0..1" style="edgeLabel;html=1;align=center;verticalAlign=middle;resizable=0;points=[];" vertex="1" connectable="0" parent="Xu3pypZPAqOBUNZXEyIU-9">
          <mxGeometry x="-0.689" y="-1" relative="1" as="geometry">
            <mxPoint x="-97" y="20" as="offset" />
          </mxGeometry>
        </mxCell>
        <mxCell id="Xu3pypZPAqOBUNZXEyIU-12" value="0..*" style="edgeLabel;html=1;align=center;verticalAlign=middle;resizable=0;points=[];" vertex="1" connectable="0" parent="Xu3pypZPAqOBUNZXEyIU-9">
          <mxGeometry x="0.751" y="-1" relative="1" as="geometry">
            <mxPoint x="-69" y="21" as="offset" />
          </mxGeometry>
        </mxCell>
        <mxCell id="Xu3pypZPAqOBUNZXEyIU-13" value="" style="endArrow=open;html=1;endSize=12;startArrow=diamondThin;startSize=14;startFill=0;edgeStyle=orthogonalEdgeStyle;align=left;verticalAlign=bottom;rounded=0;" edge="1" parent="1" source="Xu3pypZPAqOBUNZXEyIU-5" target="tgPBSSRWqkqk4DsDawLG-6">
          <mxGeometry x="-0.7895" y="-10" relative="1" as="geometry">
            <mxPoint x="1151" y="-220" as="sourcePoint" />
            <mxPoint x="800" y="-565" as="targetPoint" />
            <Array as="points">
              <mxPoint x="1220" y="-600" />
              <mxPoint x="570" y="-600" />
            </Array>
            <mxPoint as="offset" />
          </mxGeometry>
        </mxCell>
        <mxCell id="Xu3pypZPAqOBUNZXEyIU-14" value="Groups" style="edgeLabel;html=1;align=center;verticalAlign=middle;resizable=0;points=[];" vertex="1" connectable="0" parent="Xu3pypZPAqOBUNZXEyIU-13">
          <mxGeometry x="0.3606" y="1" relative="1" as="geometry">
            <mxPoint x="177" y="99" as="offset" />
          </mxGeometry>
        </mxCell>
        <mxCell id="Xu3pypZPAqOBUNZXEyIU-15" value="0..1" style="edgeLabel;html=1;align=center;verticalAlign=middle;resizable=0;points=[];" vertex="1" connectable="0" parent="Xu3pypZPAqOBUNZXEyIU-13">
          <mxGeometry x="-0.689" y="-1" relative="1" as="geometry">
            <mxPoint x="19" y="142" as="offset" />
          </mxGeometry>
        </mxCell>
        <mxCell id="Xu3pypZPAqOBUNZXEyIU-16" value="0..*" style="edgeLabel;html=1;align=center;verticalAlign=middle;resizable=0;points=[];" vertex="1" connectable="0" parent="Xu3pypZPAqOBUNZXEyIU-13">
          <mxGeometry x="0.751" y="-1" relative="1" as="geometry">
            <mxPoint x="-85" y="11" as="offset" />
          </mxGeometry>
        </mxCell>
        <mxCell id="Xu3pypZPAqOBUNZXEyIU-17" value="Pairs" style="edgeLabel;html=1;align=center;verticalAlign=middle;resizable=0;points=[];" vertex="1" connectable="0" parent="1">
          <mxGeometry x="1259.6666666666665" y="-500" as="geometry">
            <mxPoint x="-50" y="115" as="offset" />
          </mxGeometry>
        </mxCell>
        <mxCell id="Xu3pypZPAqOBUNZXEyIU-18" value="" style="endArrow=open;html=1;endSize=12;startArrow=diamondThin;startSize=14;startFill=0;edgeStyle=orthogonalEdgeStyle;align=left;verticalAlign=bottom;rounded=0;" edge="1" parent="1" source="Xu3pypZPAqOBUNZXEyIU-5" target="tgPBSSRWqkqk4DsDawLG-6">
          <mxGeometry x="-0.7895" y="-10" relative="1" as="geometry">
            <mxPoint x="1230" y="-220" as="sourcePoint" />
            <mxPoint x="580" y="-565" as="targetPoint" />
            <Array as="points">
              <mxPoint x="1190" y="-710" />
              <mxPoint x="550" y="-710" />
            </Array>
            <mxPoint as="offset" />
          </mxGeometry>
        </mxCell>
        <mxCell id="Xu3pypZPAqOBUNZXEyIU-19" value="Groups" style="edgeLabel;html=1;align=center;verticalAlign=middle;resizable=0;points=[];" vertex="1" connectable="0" parent="Xu3pypZPAqOBUNZXEyIU-18">
          <mxGeometry x="0.3606" y="1" relative="1" as="geometry">
            <mxPoint x="177" y="99" as="offset" />
          </mxGeometry>
        </mxCell>
        <mxCell id="Xu3pypZPAqOBUNZXEyIU-20" value="0..1" style="edgeLabel;html=1;align=center;verticalAlign=middle;resizable=0;points=[];" vertex="1" connectable="0" parent="Xu3pypZPAqOBUNZXEyIU-18">
          <mxGeometry x="-0.689" y="-1" relative="1" as="geometry">
            <mxPoint x="19" y="175" as="offset" />
          </mxGeometry>
        </mxCell>
        <mxCell id="Xu3pypZPAqOBUNZXEyIU-21" value="0..*" style="edgeLabel;html=1;align=center;verticalAlign=middle;resizable=0;points=[];" vertex="1" connectable="0" parent="Xu3pypZPAqOBUNZXEyIU-18">
          <mxGeometry x="0.751" y="-1" relative="1" as="geometry">
            <mxPoint x="-352" y="281" as="offset" />
          </mxGeometry>
        </mxCell>
        <mxCell id="Xu3pypZPAqOBUNZXEyIU-22" value="SuccessorPairs" style="edgeLabel;html=1;align=center;verticalAlign=middle;resizable=0;points=[];" vertex="1" connectable="0" parent="1">
          <mxGeometry x="1239.9966666666664" y="-430" as="geometry">
            <mxPoint x="-50" y="115" as="offset" />
          </mxGeometry>
        </mxCell>
        <mxCell id="Xu3pypZPAqOBUNZXEyIU-23" value="" style="endArrow=open;html=1;endSize=12;startArrow=diamondThin;startSize=14;startFill=0;edgeStyle=orthogonalEdgeStyle;align=left;verticalAlign=bottom;rounded=0;" edge="1" parent="1" source="Xu3pypZPAqOBUNZXEyIU-5" target="tgPBSSRWqkqk4DsDawLG-4">
          <mxGeometry x="-0.7895" y="-10" relative="1" as="geometry">
            <mxPoint x="1151" y="-220" as="sourcePoint" />
            <mxPoint x="800" y="-565" as="targetPoint" />
            <Array as="points">
              <mxPoint x="1080" y="-380" />
              <mxPoint x="180" y="-380" />
            </Array>
            <mxPoint as="offset" />
          </mxGeometry>
        </mxCell>
        <mxCell id="Xu3pypZPAqOBUNZXEyIU-24" value="Groups" style="edgeLabel;html=1;align=center;verticalAlign=middle;resizable=0;points=[];" vertex="1" connectable="0" parent="Xu3pypZPAqOBUNZXEyIU-23">
          <mxGeometry x="0.3606" y="1" relative="1" as="geometry">
            <mxPoint x="177" y="99" as="offset" />
          </mxGeometry>
        </mxCell>
        <mxCell id="Xu3pypZPAqOBUNZXEyIU-25" value="0..1" style="edgeLabel;html=1;align=center;verticalAlign=middle;resizable=0;points=[];" vertex="1" connectable="0" parent="Xu3pypZPAqOBUNZXEyIU-23">
          <mxGeometry x="-0.689" y="-1" relative="1" as="geometry">
            <mxPoint x="3" y="131" as="offset" />
          </mxGeometry>
        </mxCell>
        <mxCell id="Xu3pypZPAqOBUNZXEyIU-26" value="0..*" style="edgeLabel;html=1;align=center;verticalAlign=middle;resizable=0;points=[];" vertex="1" connectable="0" parent="Xu3pypZPAqOBUNZXEyIU-23">
          <mxGeometry x="0.751" y="-1" relative="1" as="geometry">
            <mxPoint x="-69" y="21" as="offset" />
          </mxGeometry>
        </mxCell>
        <mxCell id="Xu3pypZPAqOBUNZXEyIU-27" value="SuccessorParticipants" style="edgeLabel;html=1;align=center;verticalAlign=middle;resizable=0;points=[];" vertex="1" connectable="0" parent="Xu3pypZPAqOBUNZXEyIU-23">
          <mxGeometry x="-0.8815" y="-5" relative="1" as="geometry">
            <mxPoint as="offset" />
          </mxGeometry>
        </mxCell>
        <mxCell id="Xu3pypZPAqOBUNZXEyIU-28" value="" style="endArrow=open;html=1;endSize=12;startArrow=diamondThin;startSize=14;startFill=0;edgeStyle=orthogonalEdgeStyle;align=left;verticalAlign=bottom;rounded=0;" edge="1" parent="1" source="tgPBSSRWqkqk4DsDawLG-123" target="tgPBSSRWqkqk4DsDawLG-6">
          <mxGeometry x="-0.7895" y="-10" relative="1" as="geometry">
            <mxPoint x="1090" y="-220" as="sourcePoint" />
            <mxPoint x="190" y="-440" as="targetPoint" />
            <Array as="points">
              <mxPoint x="120" y="-290" />
              <mxPoint x="-90" y="-290" />
              <mxPoint x="-90" y="-520" />
            </Array>
            <mxPoint as="offset" />
          </mxGeometry>
        </mxCell>
        <mxCell id="Xu3pypZPAqOBUNZXEyIU-29" value="Groups" style="edgeLabel;html=1;align=center;verticalAlign=middle;resizable=0;points=[];" vertex="1" connectable="0" parent="Xu3pypZPAqOBUNZXEyIU-28">
          <mxGeometry x="0.3606" y="1" relative="1" as="geometry">
            <mxPoint x="177" y="99" as="offset" />
          </mxGeometry>
        </mxCell>
        <mxCell id="Xu3pypZPAqOBUNZXEyIU-30" value="0..1" style="edgeLabel;html=1;align=center;verticalAlign=middle;resizable=0;points=[];" vertex="1" connectable="0" parent="Xu3pypZPAqOBUNZXEyIU-28">
          <mxGeometry x="-0.689" y="-1" relative="1" as="geometry">
            <mxPoint x="9" y="147" as="offset" />
          </mxGeometry>
        </mxCell>
        <mxCell id="Xu3pypZPAqOBUNZXEyIU-31" value="0..*" style="edgeLabel;html=1;align=center;verticalAlign=middle;resizable=0;points=[];" vertex="1" connectable="0" parent="Xu3pypZPAqOBUNZXEyIU-28">
          <mxGeometry x="0.751" y="-1" relative="1" as="geometry">
            <mxPoint x="-69" y="21" as="offset" />
          </mxGeometry>
        </mxCell>
        <mxCell id="Xu3pypZPAqOBUNZXEyIU-32" value="cannotFindGroup" style="edgeLabel;html=1;align=center;verticalAlign=middle;resizable=0;points=[];" vertex="1" connectable="0" parent="Xu3pypZPAqOBUNZXEyIU-28">
          <mxGeometry x="-0.8815" y="-5" relative="1" as="geometry">
            <mxPoint x="-35" y="-87" as="offset" />
          </mxGeometry>
        </mxCell>
        <mxCell id="Xu3pypZPAqOBUNZXEyIU-33" value="pairDidntCookList" style="edgeLabel;html=1;align=center;verticalAlign=middle;resizable=0;points=[];" vertex="1" connectable="0" parent="Xu3pypZPAqOBUNZXEyIU-28">
          <mxGeometry x="-0.0816" relative="1" as="geometry">
            <mxPoint as="offset" />
          </mxGeometry>
        </mxCell>
        <mxCell id="Xu3pypZPAqOBUNZXEyIU-34" value="unmatchedPairCourse3" style="edgeLabel;html=1;align=center;verticalAlign=middle;resizable=0;points=[];" vertex="1" connectable="0" parent="Xu3pypZPAqOBUNZXEyIU-28">
          <mxGeometry x="0.2717" y="-2" relative="1" as="geometry">
            <mxPoint as="offset" />
          </mxGeometry>
        </mxCell>
        <mxCell id="Xu3pypZPAqOBUNZXEyIU-35" value="unCookedPairCourse3" style="edgeLabel;html=1;align=center;verticalAlign=middle;resizable=0;points=[];" vertex="1" connectable="0" parent="Xu3pypZPAqOBUNZXEyIU-28">
          <mxGeometry x="-0.3682" y="5" relative="1" as="geometry">
            <mxPoint as="offset" />
          </mxGeometry>
        </mxCell>
        <mxCell id="Xu3pypZPAqOBUNZXEyIU-36" value="" style="endArrow=open;html=1;endSize=12;startArrow=diamondThin;startSize=14;startFill=0;edgeStyle=orthogonalEdgeStyle;align=left;verticalAlign=bottom;rounded=0;" edge="1" parent="1" source="tgPBSSRWqkqk4DsDawLG-123" target="tgPBSSRWqkqk4DsDawLG-10">
          <mxGeometry x="-0.7895" y="-10" relative="1" as="geometry">
            <mxPoint x="130" y="-80" as="sourcePoint" />
            <mxPoint x="350" y="-510" as="targetPoint" />
            <Array as="points">
              <mxPoint x="390" y="-170" />
              <mxPoint x="-30" y="-170" />
              <mxPoint x="-30" y="-510" />
            </Array>
            <mxPoint as="offset" />
          </mxGeometry>
        </mxCell>
        <mxCell id="Xu3pypZPAqOBUNZXEyIU-37" value="Groups" style="edgeLabel;html=1;align=center;verticalAlign=middle;resizable=0;points=[];" vertex="1" connectable="0" parent="Xu3pypZPAqOBUNZXEyIU-36">
          <mxGeometry x="0.3606" y="1" relative="1" as="geometry">
            <mxPoint x="177" y="99" as="offset" />
          </mxGeometry>
        </mxCell>
        <mxCell id="Xu3pypZPAqOBUNZXEyIU-38" value="0..1" style="edgeLabel;html=1;align=center;verticalAlign=middle;resizable=0;points=[];" vertex="1" connectable="0" parent="Xu3pypZPAqOBUNZXEyIU-36">
          <mxGeometry x="-0.689" y="-1" relative="1" as="geometry">
            <mxPoint x="179" y="51" as="offset" />
          </mxGeometry>
        </mxCell>
        <mxCell id="Xu3pypZPAqOBUNZXEyIU-39" value="0..*" style="edgeLabel;html=1;align=center;verticalAlign=middle;resizable=0;points=[];" vertex="1" connectable="0" parent="Xu3pypZPAqOBUNZXEyIU-36">
          <mxGeometry x="0.751" y="-1" relative="1" as="geometry">
            <mxPoint x="202" y="69" as="offset" />
          </mxGeometry>
        </mxCell>
        <mxCell id="Xu3pypZPAqOBUNZXEyIU-43" value="&lt;div&gt;allCookedGroup&lt;/div&gt;&lt;div&gt;PairDidntCookGroup&lt;br&gt;&lt;/div&gt;" style="edgeLabel;html=1;align=center;verticalAlign=middle;resizable=0;points=[];" vertex="1" connectable="0" parent="Xu3pypZPAqOBUNZXEyIU-36">
          <mxGeometry x="-0.3682" y="5" relative="1" as="geometry">
            <mxPoint x="327" y="-5" as="offset" />
          </mxGeometry>
        </mxCell>
        <mxCell id="Xu3pypZPAqOBUNZXEyIU-44" style="edgeStyle=orthogonalEdgeStyle;rounded=0;orthogonalLoop=1;jettySize=auto;html=1;dashed=1;dashPattern=8 8;endArrow=block;endFill=0;exitX=0.25;exitY=0;exitDx=0;exitDy=0;" edge="1" parent="1" source="tgPBSSRWqkqk4DsDawLG-4" target="tgPBSSRWqkqk4DsDawLG-118">
          <mxGeometry relative="1" as="geometry">
            <mxPoint x="260" y="-230" as="sourcePoint" />
            <mxPoint x="-70" y="-120" as="targetPoint" />
            <Array as="points">
              <mxPoint x="-360" y="-590" />
              <mxPoint x="-360" y="-120" />
            </Array>
          </mxGeometry>
        </mxCell>
        <mxCell id="Xu3pypZPAqOBUNZXEyIU-45" value="&amp;lt;&amp;lt; use&amp;gt;&amp;gt;" style="edgeLabel;html=1;align=center;verticalAlign=middle;resizable=0;points=[];" vertex="1" connectable="0" parent="Xu3pypZPAqOBUNZXEyIU-44">
          <mxGeometry x="0.3057" relative="1" as="geometry">
            <mxPoint x="8" y="10" as="offset" />
          </mxGeometry>
        </mxCell>
        <mxCell id="Xu3pypZPAqOBUNZXEyIU-46" style="edgeStyle=orthogonalEdgeStyle;rounded=0;orthogonalLoop=1;jettySize=auto;html=1;dashed=1;dashPattern=8 8;endArrow=block;endFill=0;" edge="1" parent="1" source="tgPBSSRWqkqk4DsDawLG-6" target="tgPBSSRWqkqk4DsDawLG-118">
          <mxGeometry relative="1" as="geometry">
            <mxPoint x="120" y="-580" as="sourcePoint" />
            <mxPoint x="-260" y="-110" as="targetPoint" />
            <Array as="points">
              <mxPoint x="465" y="-580" />
              <mxPoint x="-350" y="-580" />
              <mxPoint x="-350" y="-110" />
            </Array>
          </mxGeometry>
        </mxCell>
        <mxCell id="Xu3pypZPAqOBUNZXEyIU-47" value="&amp;lt;&amp;lt; use&amp;gt;&amp;gt;" style="edgeLabel;html=1;align=center;verticalAlign=middle;resizable=0;points=[];" vertex="1" connectable="0" parent="Xu3pypZPAqOBUNZXEyIU-46">
          <mxGeometry x="0.3057" relative="1" as="geometry">
            <mxPoint x="8" y="10" as="offset" />
          </mxGeometry>
        </mxCell>
        <mxCell id="Xu3pypZPAqOBUNZXEyIU-48" style="edgeStyle=orthogonalEdgeStyle;rounded=0;orthogonalLoop=1;jettySize=auto;html=1;dashed=1;dashPattern=8 8;endArrow=block;endFill=0;" edge="1" parent="1" source="tgPBSSRWqkqk4DsDawLG-10" target="tgPBSSRWqkqk4DsDawLG-118">
          <mxGeometry relative="1" as="geometry">
            <mxPoint x="130" y="-570" as="sourcePoint" />
            <mxPoint x="-250" y="-100" as="targetPoint" />
            <Array as="points">
              <mxPoint x="-340" y="-570" />
              <mxPoint x="-340" y="-100" />
            </Array>
          </mxGeometry>
        </mxCell>
        <mxCell id="Xu3pypZPAqOBUNZXEyIU-49" value="&amp;lt;&amp;lt; use&amp;gt;&amp;gt;" style="edgeLabel;html=1;align=center;verticalAlign=middle;resizable=0;points=[];" vertex="1" connectable="0" parent="Xu3pypZPAqOBUNZXEyIU-48">
          <mxGeometry x="0.3057" relative="1" as="geometry">
            <mxPoint x="8" y="10" as="offset" />
          </mxGeometry>
        </mxCell>
        <mxCell id="Xu3pypZPAqOBUNZXEyIU-50" style="edgeStyle=orthogonalEdgeStyle;rounded=0;orthogonalLoop=1;jettySize=auto;html=1;dashed=1;dashPattern=8 8;endArrow=block;endFill=0;" edge="1" parent="1" source="tgPBSSRWqkqk4DsDawLG-14" target="tgPBSSRWqkqk4DsDawLG-118">
          <mxGeometry relative="1" as="geometry">
            <mxPoint x="140" y="-560" as="sourcePoint" />
            <mxPoint x="-240" y="-90" as="targetPoint" />
            <Array as="points">
              <mxPoint x="150" y="-560" />
              <mxPoint x="-330" y="-560" />
              <mxPoint x="-330" y="-90" />
            </Array>
          </mxGeometry>
        </mxCell>
        <mxCell id="Xu3pypZPAqOBUNZXEyIU-51" value="&amp;lt;&amp;lt; use&amp;gt;&amp;gt;" style="edgeLabel;html=1;align=center;verticalAlign=middle;resizable=0;points=[];" vertex="1" connectable="0" parent="Xu3pypZPAqOBUNZXEyIU-50">
          <mxGeometry x="0.3057" relative="1" as="geometry">
            <mxPoint x="8" y="10" as="offset" />
          </mxGeometry>
        </mxCell>
        <mxCell id="Xu3pypZPAqOBUNZXEyIU-63" value="ReadCSV" style="swimlane;fontStyle=1;align=center;verticalAlign=top;childLayout=stackLayout;horizontal=1;startSize=26;horizontalStack=0;resizeParent=1;resizeParentMax=0;resizeLast=0;collapsible=1;marginBottom=0;whiteSpace=wrap;html=1;" vertex="1" parent="1">
          <mxGeometry x="640" y="-210" width="300" height="110" as="geometry" />
        </mxCell>
        <mxCell id="Xu3pypZPAqOBUNZXEyIU-64" value="&lt;div&gt;+ AddressTable : Hashmap&amp;lt;String,List&amp;lt;Participant&amp;gt;&amp;gt;&lt;/div&gt;" style="text;strokeColor=none;fillColor=none;align=left;verticalAlign=top;spacingLeft=4;spacingRight=4;overflow=hidden;rotatable=0;points=[[0,0.5],[1,0.5]];portConstraint=eastwest;whiteSpace=wrap;html=1;" vertex="1" parent="Xu3pypZPAqOBUNZXEyIU-63">
          <mxGeometry y="26" width="300" height="24" as="geometry" />
        </mxCell>
        <mxCell id="Xu3pypZPAqOBUNZXEyIU-65" value="" style="line;strokeWidth=1;fillColor=none;align=left;verticalAlign=middle;spacingTop=-1;spacingLeft=3;spacingRight=3;rotatable=0;labelPosition=right;points=[];portConstraint=eastwest;strokeColor=inherit;" vertex="1" parent="Xu3pypZPAqOBUNZXEyIU-63">
          <mxGeometry y="50" width="300" height="8" as="geometry" />
        </mxCell>
        <mxCell id="Xu3pypZPAqOBUNZXEyIU-66" value="&lt;div&gt;+ read_file(File) : List&amp;lt;String[]&amp;gt;&lt;/div&gt;&lt;div&gt;+ addParticipantAndPair(List&amp;lt;String[]&amp;gt;) : void&lt;br&gt;&lt;/div&gt;&lt;div&gt;+ addPartyLocation(List&amp;lt;String[]&amp;gt; list) : void&lt;br&gt;&lt;/div&gt;" style="text;strokeColor=none;fillColor=none;align=left;verticalAlign=top;spacingLeft=4;spacingRight=4;overflow=hidden;rotatable=0;points=[[0,0.5],[1,0.5]];portConstraint=eastwest;whiteSpace=wrap;html=1;" vertex="1" parent="Xu3pypZPAqOBUNZXEyIU-63">
          <mxGeometry y="58" width="300" height="52" as="geometry" />
        </mxCell>
        <mxCell id="Xu3pypZPAqOBUNZXEyIU-67" value="ListVisualization" style="swimlane;fontStyle=1;align=center;verticalAlign=top;childLayout=stackLayout;horizontal=1;startSize=26;horizontalStack=0;resizeParent=1;resizeParentMax=0;resizeLast=0;collapsible=1;marginBottom=0;whiteSpace=wrap;html=1;" vertex="1" parent="1">
          <mxGeometry x="210" y="390" width="300" height="200" as="geometry" />
        </mxCell>
        <mxCell id="Xu3pypZPAqOBUNZXEyIU-68" value="&lt;div&gt;- partyLocation : File&lt;/div&gt;&lt;div&gt;- participantCSVFile : File&lt;/div&gt;&lt;div&gt;- isPairGenerated boolean&lt;br&gt;&lt;/div&gt;" style="text;strokeColor=none;fillColor=none;align=left;verticalAlign=top;spacingLeft=4;spacingRight=4;overflow=hidden;rotatable=0;points=[[0,0.5],[1,0.5]];portConstraint=eastwest;whiteSpace=wrap;html=1;" vertex="1" parent="Xu3pypZPAqOBUNZXEyIU-67">
          <mxGeometry y="26" width="300" height="54" as="geometry" />
        </mxCell>
        <mxCell id="Xu3pypZPAqOBUNZXEyIU-69" value="" style="line;strokeWidth=1;fillColor=none;align=left;verticalAlign=middle;spacingTop=-1;spacingLeft=3;spacingRight=3;rotatable=0;labelPosition=right;points=[];portConstraint=eastwest;strokeColor=inherit;" vertex="1" parent="Xu3pypZPAqOBUNZXEyIU-67">
          <mxGeometry y="80" width="300" height="8" as="geometry" />
        </mxCell>
        <mxCell id="Xu3pypZPAqOBUNZXEyIU-70" value="&lt;div&gt;- switchToMainInterface(Stage) : void&lt;/div&gt;&lt;div&gt;- mainMenu(Stage) : void&lt;/div&gt;&lt;div&gt;- showPairListOnScreen() : void&lt;/div&gt;&lt;div&gt;- showSettingWindow() : void&lt;/div&gt;&lt;div&gt;- removeParticipantWIndow() : void&lt;br&gt;&lt;/div&gt;&lt;div&gt;- optionToWeight(String) : int&lt;/div&gt;&lt;div&gt;- changeCriteriaWindow() : void&lt;br&gt;&lt;/div&gt;" style="text;strokeColor=none;fillColor=none;align=left;verticalAlign=top;spacingLeft=4;spacingRight=4;overflow=hidden;rotatable=0;points=[[0,0.5],[1,0.5]];portConstraint=eastwest;whiteSpace=wrap;html=1;" vertex="1" parent="Xu3pypZPAqOBUNZXEyIU-67">
          <mxGeometry y="88" width="300" height="112" as="geometry" />
        </mxCell>
      </root>
    </mxGraphModel>
  </diagram>
</mxfile>
